<svg width="674" height="448" viewBox="0 0 674 448" fill="none" xmlns="http://www.w3.org/2000/svg">
<path d="M341.91 126.593C335.909 116.669 328.799 106.073 317.664 102.832C304.769 99.0795 291.523 106.534 280.287 113.891C246.684 135.891 214.324 159.733 183.355 185.308L183.389 185.694C207.5 184.031 231.61 182.368 255.721 180.706C273.141 179.504 291.159 178.137 306.553 169.897C312.395 166.769 318.089 162.592 324.709 162.301C332.933 161.94 340.104 167.683 345.739 173.684C379.074 209.182 388.72 263.465 426.119 294.652C402.536 236.494 374.379 180.298 341.91 126.593Z" fill="#F3F4F6"/>
<path d="M546.814 427.673C543.127 423.018 541.621 421.928 537.985 417.23C508.377 378.937 480.549 339.351 454.499 298.471C436.805 270.707 419.989 242.41 404.049 213.58C396.461 199.874 389.081 186.06 381.909 172.139C376.343 161.344 370.902 150.486 365.585 139.562C364.064 136.442 362.586 133.308 361.116 130.167C357.652 122.779 354.252 115.356 350.602 108.069C346.442 99.7633 341.378 91.0561 333.739 85.4761C330.263 82.8324 326.106 81.2328 321.755 80.8643C315.536 80.4627 309.798 83.0304 304.405 85.8347C264.943 106.412 227.999 132.211 194.583 161.567C161.082 190.989 131.137 224.229 105.36 260.609C104.571 261.735 102.706 260.659 103.502 259.526C106.637 255.093 109.833 250.709 113.092 246.372C153.61 192.484 203.291 146.143 259.865 109.467C269.383 103.299 279.08 97.4203 288.956 91.8307C293.933 89.012 298.933 86.2291 304.018 83.6185C309.002 81.058 314.295 78.7556 319.99 78.6696C339.37 78.3684 349.404 100.316 356.296 115.083C358.462 119.731 360.655 124.364 362.873 128.983C371.258 146.519 379.965 163.895 388.995 181.111C394.568 191.741 400.262 202.308 406.079 212.813C424.182 245.525 443.423 277.576 463.802 308.964C490.798 350.542 517.58 387.271 548.334 426.152C549.181 427.228 547.667 428.763 546.814 427.673Z" fill="#E5E7EB"/>
<path d="M192.668 150.729C191.542 149.474 190.423 148.219 189.29 146.964C180.353 137.08 170.764 127.312 158.492 121.646C152.641 118.859 146.253 117.378 139.772 117.306C133.074 117.328 126.525 119.085 120.336 121.545C117.409 122.714 114.547 124.041 111.729 125.454C108.508 127.075 105.345 128.804 102.197 130.546C96.2869 133.817 90.4535 137.231 84.6967 140.788C73.2424 147.867 62.1469 155.487 51.4101 163.646C45.8442 167.878 40.3932 172.248 35.0571 176.757C30.0939 180.946 25.2311 185.247 20.4688 189.66C19.4503 190.6 17.9297 189.079 18.9481 188.14C20.2033 186.971 21.4728 185.809 22.7423 184.661C26.3285 181.419 29.972 178.24 33.673 175.122C40.4219 169.427 47.3455 163.952 54.4439 158.698C65.4822 150.521 76.9004 142.899 88.6986 135.832C94.5944 132.304 100.571 128.923 106.629 125.691C108.458 124.715 110.309 123.761 112.181 122.858C116.428 120.715 120.841 118.919 125.378 117.486C131.803 115.407 138.602 114.739 145.309 115.528C151.786 116.47 158.025 118.628 163.699 121.889C175.749 128.624 185.094 139.038 194.188 149.202C195.107 150.234 193.593 151.762 192.668 150.729Z" fill="#E5E7EB"/>
<path d="M439.554 253.148L468.427 242.587L482.763 237.344C487.432 235.636 492.089 233.692 496.916 232.469C501.11 231.271 505.563 231.328 509.726 232.633C513.438 234.007 516.836 236.113 519.718 238.826C522.662 241.538 525.401 244.463 527.913 247.578C531.034 251.329 534.109 255.12 537.198 258.897C549.946 274.488 562.611 290.146 575.193 305.872C587.774 321.598 600.271 337.39 612.684 353.249C625.127 369.148 637.485 385.112 649.757 401.143C651.26 403.107 652.762 405.072 654.263 407.038C655.092 408.124 656.962 407.053 656.121 405.952C643.758 389.759 631.31 373.633 618.775 357.574C606.209 341.476 593.556 325.446 580.816 309.484C568.077 293.523 555.252 277.631 542.34 261.808C539.124 257.867 535.902 253.929 532.675 249.996C529.952 246.678 527.261 243.324 524.275 240.236C518.794 234.568 511.946 229.558 503.75 229.422C498.93 229.343 494.266 230.872 489.789 232.492C484.962 234.238 480.146 236.017 475.326 237.78L446.251 248.414L438.982 251.073C437.692 251.545 438.249 253.625 439.554 253.148L439.554 253.148Z" fill="#E5E7EB"/>
<path d="M154.693 134.082C140.02 126.541 121.229 128.018 107.746 137.439C133.464 141.876 158.901 147.813 183.926 155.219C173.534 149.13 165.405 139.588 154.693 134.082Z" fill="#F3F4F6"/>
<path d="M107.602 137.414L104.777 139.71C105.733 138.906 106.726 138.153 107.746 137.44C107.698 137.431 107.65 137.422 107.602 137.414Z" fill="#F3F4F6"/>
<path d="M518.632 253.253C515.789 249.793 512.716 246.171 508.465 244.766L504.496 244.922C534.71 298.311 575.515 344.961 624.409 382.01C589.15 339.091 553.891 296.172 518.632 253.253Z" fill="#F3F4F6"/>
<path d="M271.819 224.713C273.656 231.386 277.794 237.194 283.501 241.11C285.707 242.613 288.317 244.054 289.072 246.614C289.469 248.246 289.225 249.969 288.389 251.426C287.554 252.864 286.539 254.19 285.368 255.37L285.261 255.771C279.786 252.526 274.576 248.421 271.552 242.821C268.527 237.221 268.105 229.882 271.819 224.713" fill="#F3F4F6"/>
<path d="M454.112 383.535C455.949 390.208 460.087 396.016 465.794 399.932C468 401.434 470.61 402.876 471.365 405.436C471.762 407.068 471.518 408.79 470.682 410.247C469.847 411.686 468.832 413.011 467.661 414.192L467.554 414.592C462.078 411.348 456.869 407.243 453.845 401.643C450.82 396.043 450.398 388.703 454.112 383.535" fill="#F3F4F6"/>
<path d="M90.309 372.582C92.1458 379.255 96.2838 385.063 101.991 388.979C104.197 390.481 106.808 391.922 107.563 394.483C107.96 396.115 107.715 397.837 106.879 399.294C106.045 400.733 105.029 402.058 103.858 403.239L103.751 403.639C98.2758 400.394 93.0667 396.29 90.0422 390.69C87.0176 385.09 86.5954 377.75 90.3091 372.582" fill="#F3F4F6"/>
<path d="M508.956 80.8023C530.993 80.8023 548.857 62.9379 548.857 40.9011C548.857 18.8643 530.993 1 508.956 1C486.919 1 469.055 18.8643 469.055 40.9011C469.055 62.9379 486.919 80.8023 508.956 80.8023Z" fill="#0061AE"/>
<path d="M580.962 10.2871C561.625 7.67324 539.547 18.1255 534.535 36.9845C533.272 33.6314 530.976 30.7666 527.978 28.804C524.98 26.8414 521.436 25.8827 517.857 26.0664C514.279 26.25 510.852 27.5664 508.07 29.8256C505.289 32.0847 503.298 35.1695 502.385 38.6343L504.599 40.2199C546.039 49.1815 588.936 48.9875 630.294 39.6516C616.843 25.515 600.3 12.9009 580.962 10.2871Z" fill="#F3F4F6"/>
<path d="M498.031 63.4883C478.693 60.8744 456.616 71.3266 451.604 90.1857C450.341 86.8325 448.044 83.9678 445.046 82.0052C442.048 80.0426 438.504 79.0839 434.926 79.2675C431.347 79.4512 427.92 80.7676 425.139 83.0267C422.357 85.2859 420.366 88.3707 419.453 91.8355L421.667 93.4211C463.107 102.383 506.005 102.189 547.362 92.8528C533.911 78.7161 517.369 66.1021 498.031 63.4883Z" fill="#F3F4F6"/>
<path d="M206.757 329.472C206.486 328.68 206.03 327.964 205.427 327.383C205.204 327.177 204.963 326.991 204.707 326.828C202.665 325.466 199.614 325.161 197.673 326.828C197.478 326.997 197.297 327.183 197.133 327.383C196.554 328.095 195.96 328.791 195.35 329.472C194.348 330.614 193.323 331.718 192.251 332.789C191.946 333.087 191.641 333.392 191.328 333.689C191.148 333.869 190.968 334.041 190.788 334.213C190.1 334.871 189.396 335.504 188.684 336.13C188.308 336.467 187.933 336.795 187.549 337.116C186.978 337.593 186.407 338.07 185.828 338.532C185.773 338.571 185.719 338.61 185.664 338.657C185.648 338.665 185.64 338.681 185.625 338.689C185.617 338.689 185.609 338.688 185.601 338.704C185.58 338.713 185.561 338.726 185.546 338.743C185.374 338.861 185.257 338.939 185.171 339.009C185.202 338.994 185.233 338.97 185.265 338.954C185.124 339.064 184.975 339.174 184.834 339.283C183.465 340.292 182.065 341.262 180.633 342.17C177.091 344.437 173.37 346.413 169.508 348.077C169.25 348.179 168.984 348.288 168.718 348.39C158.605 352.533 147.635 354.15 136.758 353.1C135.647 353.014 134.536 352.896 133.425 352.748C132.142 352.56 130.866 352.333 129.599 352.075C124.774 351.112 120.052 349.687 115.5 347.819C109.806 345.211 104.391 342.034 99.3365 338.336C98.5541 337.781 97.7639 337.225 96.9737 336.686C97.8735 334.479 98.7576 332.273 99.6182 330.051C100.048 328.979 100.463 327.907 100.87 326.828C104.07 318.511 107.074 310.116 109.953 301.69C112.864 293.154 115.61 284.569 118.192 275.934C118.458 275.058 118.716 274.182 118.966 273.305C120.32 268.744 121.619 264.173 122.863 259.59C122.98 259.144 123.105 258.706 123.215 258.26C123.574 256.946 123.927 255.632 124.271 254.317C125.053 251.352 123.285 247.808 120.171 247.096C118.672 246.711 117.082 246.924 115.736 247.689C114.391 248.454 113.395 249.711 112.958 251.195C112.621 252.463 112.285 253.723 111.941 254.99C110.29 261.116 108.553 267.221 106.73 273.305C106.464 274.182 106.198 275.058 105.932 275.934C101.911 289.188 97.4953 302.308 92.6863 315.295C92.1074 316.868 91.5206 318.435 90.926 319.998C90.6365 320.764 90.347 321.531 90.0497 322.298C89.4786 323.808 88.8918 325.318 88.305 326.828C87.9686 327.712 87.6243 328.596 87.2801 329.472C87.0532 330.028 86.8342 330.583 86.6151 331.131C84.3844 330.33 82.0733 329.774 79.7224 329.472L79.3468 329.425C77.5242 329.206 75.681 329.222 73.8624 329.472C71.1405 329.79 68.5217 330.701 66.191 332.142C63.8602 333.584 61.8745 335.519 60.3742 337.812C56.6423 343.688 56.6892 352.091 61.9233 357.082C67.3139 362.222 75.4741 362.183 81.8191 358.968C85.1816 357.149 88.0168 354.491 90.0497 351.253C90.8285 350.08 91.5441 348.865 92.1934 347.615C92.3577 347.725 92.522 347.834 92.6863 347.952C93.3122 348.39 93.9381 348.836 94.5562 349.274C98.1575 351.883 101.953 354.213 105.908 356.245C114.414 360.474 123.571 363.243 132.994 364.436C133.206 364.46 133.409 364.491 133.62 364.515C134.661 364.648 135.709 364.749 136.758 364.835C151.796 365.969 166.854 362.891 180.242 355.948C181.376 355.361 182.5 354.745 183.614 354.101C185.343 353.1 187.033 352.036 188.684 350.909C189.583 350.299 190.46 349.681 191.328 349.031C195.123 346.236 198.661 343.107 201.898 339.682C203.126 338.391 204.303 337.059 205.427 335.684C206.49 334.56 207.102 333.084 207.148 331.538C207.142 330.831 207.009 330.132 206.757 329.472ZM77.2031 348.108C77.3674 347.991 77.5317 347.866 77.6882 347.741C77.6413 347.858 77.4144 347.991 77.2032 348.108H77.2031ZM79.7146 345.581C79.5346 345.785 79.3703 345.988 79.1903 346.191C78.6429 346.804 78.0548 347.379 77.43 347.913C77.3439 347.991 77.2501 348.069 77.1562 348.14C77.1552 348.14 77.1541 348.14 77.1532 348.14C77.1522 348.141 77.1513 348.141 77.1506 348.142C77.1499 348.143 77.1493 348.143 77.1489 348.144C77.1485 348.145 77.1483 348.146 77.1484 348.147C77.0353 348.198 76.9256 348.255 76.8197 348.32C76.4833 348.523 76.1391 348.711 75.787 348.883C75.0977 349.137 74.3885 349.333 73.6668 349.47C73.1122 349.51 72.5556 349.515 72.0003 349.485H71.9847C71.6015 349.4 71.2229 349.296 70.8502 349.172C70.6625 349.078 70.4825 348.969 70.3026 348.859C70.2322 348.797 70.1695 348.734 70.1305 348.695C70.054 348.625 69.9834 348.549 69.9193 348.468C69.9193 348.467 69.9191 348.466 69.9187 348.465C69.9183 348.464 69.9178 348.463 69.917 348.463C69.9163 348.462 69.9154 348.461 69.9144 348.461C69.9135 348.461 69.9125 348.46 69.9114 348.46C69.8253 348.304 69.7315 348.147 69.6454 347.991C69.641 347.987 69.6382 347.981 69.6376 347.975C69.575 347.78 69.5203 347.576 69.4733 347.373C69.4563 347.016 69.4589 346.658 69.4811 346.301C69.5861 345.801 69.7273 345.31 69.9036 344.83C70.062 344.49 70.2423 344.161 70.4434 343.844C70.4591 343.813 70.5373 343.688 70.6234 343.547C70.6312 343.539 70.6312 343.539 70.6312 343.531C70.7486 343.398 70.8659 343.258 70.9911 343.132C71.2024 342.898 71.4293 342.694 71.6561 342.483C72.0974 342.194 72.5545 341.93 73.0253 341.693C73.7722 341.427 74.5386 341.221 75.3177 341.075C76.4664 340.983 77.621 340.994 78.7679 341.106C79.8542 341.295 80.9261 341.559 81.9756 341.896C81.3395 343.131 80.6153 344.318 79.8085 345.448C79.7771 345.495 79.7459 345.542 79.7146 345.581ZM71.0145 343.007C70.9456 343.118 70.8642 343.22 70.772 343.312C70.8341 343.197 70.9162 343.094 71.0145 343.007Z" fill="#24283B"/>
<path d="M183.238 249.568C183.167 252.025 183.097 254.482 183.026 256.938C182.878 262.392 182.724 267.847 182.565 273.306C182.4 279.447 182.228 285.586 182.048 291.723C181.962 294.892 181.874 298.06 181.782 301.229C181.54 309.764 181.3 318.298 181.063 326.828C181.039 327.712 181.008 328.588 180.984 329.472C180.867 333.705 180.75 337.938 180.632 342.17C180.499 346.763 180.369 351.356 180.241 355.948C180.147 359.39 180.051 362.836 179.952 366.283C179.247 391.264 178.543 416.246 177.839 441.227C177.809 442.774 177.182 444.249 176.088 445.343C174.994 446.437 173.518 447.065 171.971 447.095C170.419 447.082 168.934 446.46 167.836 445.362C166.738 444.265 166.116 442.779 166.104 441.227C166.495 427.176 166.891 413.124 167.293 399.073C167.645 386.367 168.002 373.661 168.365 360.955C168.482 356.77 168.599 352.581 168.717 348.39C168.897 342.084 169.074 335.778 169.249 329.472C169.272 328.588 169.303 327.712 169.327 326.828C169.343 326.053 169.366 325.287 169.389 324.512C169.734 312.268 170.078 300.021 170.422 287.772C170.563 282.952 170.699 278.13 170.829 273.306C170.986 267.806 171.142 262.308 171.298 256.813C171.369 254.396 171.432 251.986 171.502 249.568C171.532 248.022 172.159 246.546 173.253 245.452C174.348 244.358 175.823 243.73 177.37 243.701C178.922 243.713 180.407 244.335 181.505 245.433C182.603 246.531 183.225 248.016 183.238 249.568Z" fill="#24283B"/>
<path d="M505.129 251.197C498.976 274.496 491.622 297.461 483.097 320C480.744 326.217 478.337 332.422 475.765 338.552L476.356 337.15C475.208 340.07 473.741 342.854 471.983 345.452C471.863 345.62 471.742 345.786 471.618 345.95C472.226 345.173 472.341 345.019 471.964 345.489C471.765 345.725 471.569 345.961 471.364 346.19C470.816 346.803 470.228 347.379 469.604 347.914C469.447 348.048 469.287 348.18 469.125 348.308L469.859 347.738C469.774 347.939 469.176 348.205 468.99 348.319C468.387 348.683 467.759 349.001 467.109 349.272L468.511 348.681C467.446 349.11 466.335 349.415 465.2 349.589L466.76 349.379C465.645 349.533 464.515 349.546 463.397 349.415L464.957 349.625C464.043 349.499 463.148 349.258 462.293 348.908L463.695 349.499C463.239 349.3 462.8 349.066 462.382 348.798C462.169 348.66 461.517 348.165 462.37 348.817C463.257 349.495 462.484 348.875 462.301 348.695C462.149 348.545 462.012 348.382 461.864 348.23C461.173 347.522 462.643 349.448 462.174 348.62C461.923 348.205 461.694 347.778 461.487 347.339L462.078 348.741C461.809 348.074 461.618 347.378 461.509 346.667L461.719 348.227C461.607 347.342 461.606 346.447 461.716 345.563L461.506 347.123C461.65 346.135 461.911 345.169 462.285 344.243L461.693 345.645C461.954 345.023 462.262 344.422 462.615 343.847C462.777 343.55 462.968 343.269 463.185 343.008C463.223 343.021 462.192 344.192 462.739 343.601C462.882 343.446 463.016 343.283 463.161 343.13C463.393 342.884 463.641 342.66 463.885 342.427C464.702 341.649 462.741 343.183 463.685 342.567C464.368 342.118 465.088 341.726 465.835 341.394L464.434 341.986C465.687 341.471 467 341.119 468.342 340.938L466.782 341.147C468.463 340.954 470.161 340.974 471.837 341.207L470.277 340.997C472.399 341.319 474.473 341.903 476.451 342.734L475.049 342.143C479.266 343.953 483.001 346.641 486.729 349.276C490.329 351.884 494.123 354.213 498.078 356.245C506.584 360.474 515.741 363.244 525.166 364.439C538.681 366.095 552.397 364.33 565.053 359.306C577.709 354.282 588.901 346.16 597.602 335.685C598.664 334.559 599.275 333.083 599.321 331.536C599.31 329.982 598.693 328.494 597.602 327.387C595.449 325.411 591.383 324.853 589.304 327.387C587.334 329.792 585.215 332.073 582.961 334.215C581.909 335.213 580.829 336.18 579.721 337.117C579.088 337.652 578.446 338.177 577.795 338.691C577.487 338.934 576.529 339.581 578.001 338.536C577.664 338.776 577.34 339.037 577.007 339.283C572.08 342.916 566.74 345.953 561.1 348.331L562.501 347.74C556.449 350.279 550.092 352.02 543.59 352.921L545.15 352.711C538.462 353.591 531.687 353.581 525.001 352.682L526.561 352.891C519.877 351.973 513.34 350.193 507.114 347.594L508.515 348.186C502.507 345.527 496.805 342.224 491.509 338.335C488.753 336.294 485.847 334.465 482.815 332.863C479.282 331.059 475.458 329.896 471.519 329.429C464.134 328.56 456.609 331.437 452.549 337.817C448.813 343.688 448.861 352.09 454.094 357.083C459.482 362.225 467.643 362.181 473.994 358.965C480.11 355.867 483.783 349.431 486.367 343.363C492.181 329.706 497.328 315.734 502.124 301.691C506.868 287.798 511.171 273.764 515.032 259.589C515.51 257.833 515.981 256.076 516.446 254.317C517.229 251.353 515.459 247.807 512.347 247.099C510.848 246.713 509.257 246.924 507.91 247.689C506.563 248.454 505.566 249.711 505.129 251.197L505.129 251.197Z" fill="#24283B"/>
<path d="M563.677 249.568L561.564 324.514L559.463 399.07L558.275 441.227C558.289 442.779 558.911 444.264 560.009 445.362C561.106 446.459 562.591 447.082 564.143 447.095C565.69 447.065 567.165 446.437 568.259 445.343C569.353 444.249 569.981 442.774 570.011 441.227L572.123 366.281L574.224 291.725L575.412 249.568C575.399 248.016 574.777 246.531 573.679 245.433C572.581 244.336 571.097 243.713 569.544 243.7C567.997 243.73 566.522 244.358 565.428 245.452C564.334 246.546 563.706 248.021 563.677 249.568Z" fill="#24283B"/>
<path opacity="0.2" d="M360.572 420.302H362.394V337.338H404.9V335.521H362.394V300.514H395.22C394.738 299.902 394.243 299.297 393.734 298.701H362.394V275.58C361.792 275.323 361.184 275.075 360.572 274.841V298.701H324.855V269.076C324.243 269.104 323.641 269.146 323.033 269.198V298.701H294.539V276.598C293.927 276.869 293.325 277.154 292.727 277.453V298.701H268.773V300.514H292.727V335.521H268.773V337.338H292.727V420.302H294.539V337.338C298.281 337.337 301.987 338.074 305.444 339.505C308.902 340.937 312.043 343.036 314.689 345.682C317.335 348.328 319.434 351.47 320.866 354.927C322.298 358.384 323.034 362.09 323.033 365.832V420.302H324.855V337.338H360.572V420.302ZM294.539 335.521V300.514H323.033V335.521H294.539ZM324.855 335.521V300.514H325.57C330.167 300.514 334.719 301.42 338.966 303.179C343.213 304.939 347.071 307.517 350.322 310.768C353.572 314.019 356.15 317.878 357.909 322.125C359.668 326.372 360.573 330.924 360.572 335.521H324.855Z" fill="black"/>
<path d="M349.445 395.427C347.151 405.659 341.656 414.894 333.758 421.793C333.179 422.293 332.6 422.778 331.998 423.256C330.535 423.389 329.082 423.524 327.64 423.662C326.443 423.772 325.261 423.889 324.088 423.999L323.877 424.022L323.728 422.739L323.133 417.544C320.827 413.778 319.397 409.542 318.95 405.148C318.503 400.755 319.05 396.317 320.551 392.164C322.617 386.594 326.357 381.672 330.034 376.79C335.111 370.046 340.048 363.38 340.228 355.158C342.727 358.355 344.804 361.86 346.409 365.587C344.894 366.3 343.534 367.302 342.403 368.536C342.082 368.888 341.762 369.381 341.981 369.804C342.168 370.164 342.638 370.25 343.045 370.297C344.023 370.398 345.009 370.5 345.987 370.602C346.769 370.688 347.551 370.766 348.334 370.852C349.28 373.959 349.922 377.15 350.25 380.381C350.778 385.408 350.506 390.485 349.445 395.427Z" fill="#24283B"/>
<path d="M375.42 374.921C370.804 378.277 368.104 383.104 366.008 388.424C363.859 389.112 361.925 390.347 360.398 392.008C360.077 392.36 359.756 392.853 359.975 393.275C360.163 393.635 360.633 393.721 361.039 393.768C362.017 393.87 363.003 393.971 363.981 394.073C361.884 400.364 359.96 406.873 356.251 412.185C353.785 415.693 350.57 418.608 346.839 420.721C345.822 421.301 344.772 421.82 343.694 422.278C339.72 422.583 335.821 422.909 331.998 423.256C330.535 423.389 329.082 423.524 327.64 423.663C326.443 423.772 325.261 423.89 324.088 423.999C324.08 423.569 324.08 423.138 324.088 422.708C324.335 411.245 328.552 400.223 336.019 391.523C336.371 391.116 336.731 390.717 337.099 390.318C340.882 386.277 345.33 382.916 350.251 380.382C358.003 376.35 366.693 374.465 375.42 374.921Z" fill="#0061AE"/>
<path d="M328.994 419.649L328.094 422.309L327.64 423.663C326.443 423.772 325.262 423.889 324.088 423.999L323.877 424.022C322.578 424.156 321.287 424.288 319.997 424.421C319.66 424.03 319.324 423.631 318.995 423.224C310.829 413.335 306.909 400.616 308.092 387.846C309.275 375.075 315.465 363.292 325.309 355.072C324.276 360.478 325.481 365.657 327.46 370.797C327.249 370.884 327.046 370.97 326.85 371.064C325.336 371.777 323.975 372.778 322.844 374.013C322.524 374.365 322.203 374.858 322.422 375.281C322.61 375.64 323.079 375.726 323.486 375.773C324.464 375.875 325.45 375.977 326.428 376.078C327.21 376.165 327.992 376.243 328.775 376.329C329.142 376.368 329.51 376.407 329.878 376.446C329.933 376.564 329.98 376.673 330.034 376.79C332.264 381.626 334.666 386.484 336.02 391.523C336.359 392.787 336.625 394.069 336.818 395.364C337.42 399.74 337.03 404.195 335.675 408.399C334.321 412.603 332.037 416.448 328.994 419.649Z" fill="#0061AE"/>
<path d="M407.747 306.174C401.012 293.036 390.577 281.982 378.305 273.859C365.993 265.747 351.865 260.807 337.181 259.479C335.256 259.304 333.327 259.202 331.392 259.172C329.107 259.138 294.726 269.055 283.208 277.153C271.697 285.152 262.228 295.745 255.564 308.078C248.913 320.478 245.641 334.41 246.078 348.474C246.648 362.624 250.592 376.432 257.581 388.748C264.474 401.024 274.262 411.43 286.094 419.061C298.094 426.718 310.148 447.02 324.316 447.737C338.591 448.459 354.871 429.308 367.891 423.493C380.91 417.63 392.166 408.457 400.536 396.889C408.669 385.551 413.931 372.41 415.87 358.593C417.883 344.445 416.945 329.854 412.113 316.332C410.873 312.857 409.415 309.465 407.747 306.174C406.355 303.432 402.274 302.422 399.719 304.069C398.403 304.88 397.45 306.166 397.058 307.661C396.666 309.157 396.865 310.745 397.614 312.097C398.432 313.708 399.192 315.345 399.895 317.009L399.303 315.607C401.963 322.003 403.772 328.721 404.683 335.588L404.474 334.028C405.443 341.478 405.425 349.023 404.422 356.468L404.632 354.908C403.617 362.353 401.63 369.632 398.721 376.56L399.312 375.158C397.816 378.693 396.072 382.117 394.093 385.406C393.09 387.068 392.026 388.69 390.9 390.274C390.406 390.968 389.897 391.651 389.383 392.332C388.713 393.221 390.296 391.172 389.604 392.043C389.486 392.192 389.369 392.34 389.251 392.488C388.895 392.933 388.535 393.373 388.17 393.809C385.73 396.719 383.068 399.435 380.208 401.933C379.495 402.555 378.771 403.163 378.034 403.757C377.668 404.053 377.305 404.361 376.923 404.637C376.937 404.626 378.159 403.698 377.436 404.237C377.208 404.406 376.983 404.578 376.755 404.747C375.238 405.871 373.679 406.938 372.081 407.948C368.401 410.266 364.541 412.285 360.537 413.983L361.938 413.391C355.032 416.299 347.772 418.285 340.348 419.299L341.907 419.09C334.486 420.093 326.965 420.106 319.54 419.129L321.1 419.339C314.352 418.433 307.751 416.648 301.466 414.031L302.868 414.622C299.227 413.085 295.717 411.256 292.371 409.153C290.716 408.11 289.103 407.002 287.533 405.83C287.309 405.663 287.087 405.493 286.864 405.325C286.148 404.784 287.379 405.724 287.389 405.73C286.972 405.431 286.572 405.112 286.188 404.772C285.43 404.154 284.684 403.523 283.949 402.877C281.011 400.289 278.267 397.489 275.74 394.498C275.107 393.75 274.488 392.991 273.882 392.221C273.62 391.888 273.142 391.212 274.198 392.635C274.059 392.448 273.915 392.264 273.775 392.078C273.438 391.63 273.105 391.18 272.777 390.726C271.628 389.136 270.535 387.507 269.5 385.839C267.161 382.064 265.119 378.112 263.393 374.019L263.985 375.421C261.161 368.703 259.231 361.644 258.242 354.424L258.452 355.984C257.56 349.329 257.547 342.585 258.414 335.927L258.204 337.487C259.093 331.039 260.828 324.736 263.364 318.742L262.772 320.144C264.368 316.391 266.25 312.767 268.401 309.303C269.479 307.569 270.62 305.878 271.826 304.229C272.1 303.855 272.377 303.482 272.658 303.112C272.911 302.777 273.608 301.944 272.419 303.416C272.535 303.272 272.648 303.123 272.762 302.978C273.424 302.139 274.102 301.314 274.796 300.501C277.423 297.426 280.269 294.544 283.311 291.879C284.08 291.205 284.861 290.546 285.654 289.9C286.014 289.607 286.377 289.317 286.742 289.03C286.888 288.915 287.036 288.802 287.182 288.687C285.619 289.93 286.748 289.025 287.102 288.759C288.737 287.534 290.415 286.371 292.137 285.269C295.965 282.821 299.992 280.699 304.175 278.925L302.773 279.517C308.845 276.968 335.743 270.951 340.636 271.607L339.076 271.398C346.266 272.402 353.295 274.343 359.981 277.173L358.579 276.582C361.967 278.021 365.26 279.675 368.437 281.534C370.025 282.464 371.581 283.446 373.106 284.477C373.827 284.966 374.542 285.465 375.248 285.976C375.601 286.231 375.952 286.489 376.301 286.749C376.495 286.894 376.688 287.041 376.881 287.186C377.694 287.795 375.761 286.303 376.614 286.977C379.466 289.218 382.176 291.636 384.725 294.217C385.978 295.492 387.187 296.808 388.353 298.164C388.951 298.86 389.537 299.566 390.111 300.282C390.396 300.638 391.366 301.926 390.177 300.349C390.467 300.734 390.761 301.117 391.049 301.506C393.521 304.852 395.717 308.394 397.614 312.097C399.017 314.834 403.08 315.854 405.642 314.203C406.959 313.392 407.912 312.106 408.305 310.61C408.697 309.115 408.497 307.526 407.747 306.174Z" fill="#24283B"/>
<path d="M339.374 401.932C338.769 401.96 338.169 401.801 337.657 401.477C337.144 401.153 336.744 400.679 336.51 400.119C336.276 399.56 336.22 398.942 336.349 398.349C336.478 397.757 336.786 397.218 337.231 396.807C337.306 396.51 337.359 396.298 337.434 396.001C337.407 395.937 337.38 395.872 337.353 395.808C334.631 389.316 317.258 407.413 316.507 413.514C316.176 416.211 316.316 418.945 316.919 421.594C311.292 409.319 308.37 395.977 308.351 382.473C308.35 379.085 308.538 375.699 308.915 372.331C309.226 369.571 309.659 366.829 310.211 364.108C313.227 349.342 319.703 335.502 329.107 323.725C334.485 324.025 339.198 323.206 339.653 312.783C339.734 310.929 341.109 309.324 341.412 307.497C340.899 307.565 340.377 307.607 339.863 307.64C339.703 307.649 339.535 307.657 339.375 307.665L339.315 307.668C338.751 307.693 338.191 307.555 337.704 307.27C337.216 306.985 336.821 306.564 336.567 306.06C336.313 305.556 336.21 304.989 336.271 304.427C336.331 303.865 336.553 303.333 336.909 302.895C337.13 302.622 337.352 302.349 337.574 302.077C337.911 301.656 338.256 301.243 338.592 300.823C338.631 300.783 338.668 300.741 338.702 300.696C339.089 300.217 339.476 299.745 339.863 299.266C339.157 298.169 338.206 297.25 337.086 296.581C333.206 294.308 327.853 295.882 325.05 299.392C322.239 302.902 321.708 307.825 322.685 312.211C323.645 315.942 325.233 319.483 327.381 322.681C327.171 322.95 326.952 323.211 326.742 323.481C322.895 328.427 319.543 333.738 316.732 339.338C317.527 333.127 307.804 310.697 304.044 305.946C299.527 300.239 290.265 302.729 289.47 309.964C289.462 310.034 289.454 310.104 289.447 310.174C290.006 310.489 290.552 310.823 291.087 311.177C291.759 311.626 292.28 312.267 292.581 313.017C292.882 313.767 292.95 314.591 292.775 315.38C292.6 316.169 292.191 316.887 291.601 317.439C291.012 317.992 290.269 318.354 289.47 318.477L289.388 318.489C281.912 329.164 305.879 356.947 311.878 350.709C309.054 358.711 307.283 367.046 306.609 375.504C306.227 380.495 306.25 385.508 306.676 390.495L306.651 390.318C305.318 379.457 282.451 363.308 275.773 364.653C271.927 365.428 268.138 365.252 268.722 369.132C268.731 369.194 268.741 369.256 268.75 369.318C269.787 369.74 270.796 370.227 271.772 370.774C272.33 371.089 272.877 371.424 273.412 371.777C274.084 372.226 274.605 372.868 274.906 373.618C275.207 374.368 275.275 375.191 275.1 375.98C274.925 376.77 274.516 377.487 273.926 378.04C273.337 378.593 272.594 378.954 271.795 379.077L271.713 379.09C271.654 379.098 271.604 379.107 271.545 379.115C268.142 390.824 293.379 409.722 308.721 403.709H308.73C310.25 410.316 312.453 416.747 315.303 422.899H338.786C338.87 422.638 338.946 422.369 339.022 422.108C336.848 422.244 334.666 422.114 332.524 421.721C334.266 419.583 336.008 417.428 337.751 415.29C337.79 415.25 337.826 415.208 337.86 415.164C338.744 414.07 339.636 412.984 340.52 411.89L340.52 411.889C340.567 408.535 340.182 405.189 339.375 401.933L339.374 401.932ZM312.484 349.034L312.496 349.017L312.484 349.051V349.034ZM307.282 395.923L307.08 395.469C307.089 395.141 307.089 394.812 307.08 394.476C307.08 394.383 307.063 394.291 307.063 394.198C307.139 394.779 307.206 395.359 307.291 395.94L307.282 395.923Z" fill="#24283B"/>
<path d="M75.5202 353.069C80.2732 353.069 84.1263 349.216 84.1263 344.463C84.1263 339.71 80.2732 335.856 75.5202 335.856C70.7672 335.856 66.9141 339.71 66.9141 344.463C66.9141 349.216 70.7672 353.069 75.5202 353.069Z" fill="#24283B"/>
<path d="M178.794 446.954C183.547 446.954 187.4 443.101 187.4 438.348C187.4 433.595 183.547 429.742 178.794 429.742C174.041 429.742 170.188 433.595 170.188 438.348C170.188 443.101 174.041 446.954 178.794 446.954Z" fill="#24283B"/>
<path d="M570.764 446.954C575.517 446.954 579.37 443.101 579.37 438.348C579.37 433.595 575.517 429.742 570.764 429.742C566.011 429.742 562.158 433.595 562.158 438.348C562.158 443.101 566.011 446.954 570.764 446.954Z" fill="#24283B"/>
<path d="M591.887 337.421C596.64 337.421 600.494 333.568 600.494 328.815C600.494 324.062 596.64 320.209 591.887 320.209C587.134 320.209 583.281 324.062 583.281 328.815C583.281 333.568 587.134 337.421 591.887 337.421Z" fill="#24283B"/>
<path d="M566.852 257.619C571.605 257.619 575.458 253.766 575.458 249.013C575.458 244.26 571.605 240.407 566.852 240.407C562.099 240.407 558.246 244.26 558.246 249.013C558.246 253.766 562.099 257.619 566.852 257.619Z" fill="#24283B"/>
<path d="M207.742 328.815C207.737 331.014 206.887 333.126 205.367 334.715C203.848 336.304 201.776 337.248 199.581 337.352C197.385 337.456 195.233 336.712 193.57 335.273C191.908 333.835 190.862 331.812 190.65 329.624C190.437 327.436 191.073 325.25 192.428 323.518C193.782 321.787 195.75 320.642 197.925 320.321C200.099 320 202.314 320.527 204.111 321.794C205.908 323.06 207.149 324.969 207.578 327.125C207.688 327.682 207.743 328.248 207.742 328.815Z" fill="#24283B"/>
<path d="M379.864 282.655C384.617 282.655 388.47 278.802 388.47 274.049C388.47 269.296 384.617 265.443 379.864 265.443C375.111 265.443 371.258 269.296 371.258 274.049C371.258 278.802 375.111 282.655 379.864 282.655Z" fill="#24283B"/>
<path d="M294.586 274.049C294.58 276.248 293.73 278.36 292.211 279.949C290.692 281.538 288.62 282.482 286.424 282.586C284.228 282.69 282.077 281.945 280.414 280.507C278.752 279.069 277.706 277.046 277.493 274.858C277.281 272.67 277.917 270.484 279.271 268.752C280.626 267.021 282.594 265.876 284.768 265.555C286.943 265.234 289.158 265.761 290.955 267.028C292.752 268.294 293.993 270.203 294.421 272.359C294.532 272.916 294.587 273.482 294.586 274.049Z" fill="#24283B"/>
<path d="M183.488 249.013C183.483 251.211 182.633 253.324 181.114 254.913C179.594 256.502 177.522 257.446 175.327 257.55C173.131 257.654 170.979 256.909 169.317 255.471C167.654 254.032 166.608 252.01 166.396 249.822C166.183 247.634 166.82 245.448 168.174 243.716C169.528 241.984 171.496 240.84 173.671 240.519C175.846 240.198 178.061 240.725 179.857 241.992C181.654 243.258 182.895 245.167 183.324 247.323C183.434 247.88 183.489 248.446 183.488 249.013Z" fill="#24283B"/>
<path d="M469.839 356.199C474.592 356.199 478.445 352.345 478.445 347.592C478.445 342.839 474.592 338.986 469.839 338.986C465.086 338.986 461.232 342.839 461.232 347.592C461.232 352.345 465.086 356.199 469.839 356.199Z" fill="#24283B"/>
<path d="M334.487 277.961C341.4 277.961 347.005 272.356 347.005 265.443C347.005 258.529 341.4 252.925 334.487 252.925C327.573 252.925 321.969 258.529 321.969 265.443C321.969 272.356 327.573 277.961 334.487 277.961Z" fill="#24283B"/>
</svg>
