<svg width="496" height="482" viewBox="0 0 496 482" fill="none" xmlns="http://www.w3.org/2000/svg">
<g clip-path="url(#clip0_8020_2400)">
<path d="M421.652 468.733C422.798 473.033 425.809 476.613 429.444 479.221C430.037 479.648 430.646 480.043 431.262 480.414C431.452 480.525 431.642 480.643 431.839 480.746C432.053 480.873 432.266 480.991 432.479 481.102H449.574C449.882 480.477 450.182 479.845 450.483 479.221C457.809 463.825 462.954 447.213 462.077 430.292C461.729 423.729 460.35 417.262 457.991 411.127C453.296 398.901 444.729 388.319 432.946 382.992C432.653 382.857 432.345 382.723 432.045 382.597C432.139 382.937 432.234 383.268 432.329 383.608C433.593 388.162 434.487 392.812 435 397.51C435.048 397.873 435.087 398.237 435.119 398.609C436.242 409.94 435.245 421.381 432.179 432.347C432.171 432.371 432.163 432.402 432.155 432.426C431.484 434.852 430.704 437.242 429.816 439.594C429.12 441.452 428.37 443.285 427.548 445.087C424.118 452.65 419.518 460.712 421.652 468.733Z" fill="#E6E6E6"/>
<path d="M431.826 382.951C431.992 383.172 432.158 383.386 432.324 383.607C435.795 388.207 438.743 393.18 441.112 398.433C441.239 398.694 441.357 398.955 441.46 399.223C444.707 406.559 446.792 414.355 447.64 422.332C447.65 422.387 447.655 422.443 447.656 422.498C447.854 424.363 447.972 426.244 448.02 428.125C448.196 431.651 447.814 435.182 446.89 438.589C446.047 441.371 444.57 443.92 442.575 446.034C442.377 446.247 442.179 446.461 441.966 446.666C441.808 446.832 441.634 446.998 441.468 447.156C439.872 448.681 438.125 450.096 436.623 451.732C435.935 452.466 435.314 453.259 434.766 454.103C433.892 455.518 433.328 457.101 433.11 458.749C432.892 460.397 433.026 462.073 433.502 463.666C434.577 467.665 437.034 471.04 439.548 474.256C440.804 475.868 442.1 477.496 443.223 479.219C443.634 479.836 444.013 480.46 444.361 481.1H445.356C445.024 480.46 444.661 479.836 444.266 479.219C441.381 474.675 437.279 470.771 435.153 465.768C433.715 462.393 433.28 458.568 435.098 455.257C435.631 454.294 436.275 453.397 437.019 452.586C438.465 450.95 440.196 449.551 441.768 448.073C442.163 447.701 442.551 447.322 442.922 446.927C444.892 444.926 446.411 442.528 447.38 439.893C448.476 436.546 448.995 433.037 448.913 429.516C448.913 427.272 448.794 425.011 448.573 422.767C448.549 422.482 448.518 422.19 448.486 421.898C446.87 407.773 441.502 394.339 432.94 382.99C432.782 382.769 432.616 382.556 432.45 382.342C432.111 381.9 431.486 382.516 431.826 382.951Z" fill="white"/>
<path d="M448.168 422.842C450.905 422.382 453.39 420.964 455.178 418.841C456.967 416.718 457.943 414.029 457.931 411.253C457.93 411.14 457.884 411.032 457.805 410.952C457.725 410.871 457.617 410.825 457.504 410.822C457.391 410.82 457.281 410.861 457.198 410.938C457.115 411.015 457.065 411.121 457.058 411.234C457.074 413.819 456.165 416.324 454.495 418.297C452.825 420.271 450.506 421.582 447.954 421.995C447.4 422.086 447.616 422.931 448.168 422.842V422.842Z" fill="white"/>
<path d="M442.797 446.193C438.146 442.942 434.892 438.058 433.682 432.514C433.563 431.965 432.716 432.179 432.836 432.728C434.105 438.494 437.502 443.57 442.349 446.942C442.812 447.263 443.257 446.512 442.797 446.193V446.193Z" fill="white"/>
<path d="M441.372 398.342C440.35 398.741 439.245 398.879 438.156 398.745C437.067 398.611 436.029 398.209 435.134 397.574C434.676 397.247 434.231 397.999 434.686 398.324C435.678 399.02 436.826 399.463 438.028 399.614C439.231 399.765 440.452 399.619 441.586 399.189C441.696 399.157 441.79 399.085 441.849 398.986C441.907 398.888 441.926 398.771 441.902 398.659C441.873 398.547 441.801 398.451 441.702 398.391C441.603 398.332 441.484 398.314 441.372 398.342Z" fill="white"/>
<path d="M372.54 413.513C372.816 413.726 373.101 413.939 373.377 414.161C377.129 417.032 380.642 420.204 383.881 423.644C384.133 423.905 384.386 424.174 384.631 424.443L384.639 424.451C392.318 432.786 398.39 442.47 402.548 453.013L402.572 453.084C402.579 453.107 402.587 453.123 402.595 453.147C404.244 457.367 405.572 461.705 406.571 466.124C407.535 470.439 408.325 475.062 409.835 479.22C410.064 479.86 410.317 480.492 410.585 481.1H445.723C445.604 480.476 445.478 479.844 445.351 479.22C443.564 470.062 440.77 461.13 437.021 452.586C436.895 452.301 436.769 452.017 436.626 451.732C434.691 447.511 432.415 443.453 429.822 439.601C429.822 439.6 429.822 439.599 429.821 439.598C429.821 439.597 429.82 439.596 429.819 439.595C429.819 439.595 429.818 439.594 429.817 439.594C429.816 439.593 429.815 439.593 429.814 439.593C428.39 437.491 426.86 435.462 425.23 433.516C421.003 428.487 416.01 424.155 410.435 420.681C410.404 420.657 410.364 420.641 410.332 420.618C399.236 413.734 386.086 410.454 373.512 413.291H373.504C373.18 413.362 372.864 413.434 372.54 413.513Z" fill="#E6E6E6"/>
<path d="M372.577 413.931C372.846 414.002 373.115 414.081 373.375 414.16C378.914 415.743 384.26 417.935 389.316 420.696C389.569 420.83 389.822 420.973 390.075 421.115C397.061 425.014 403.403 429.97 408.876 435.807C408.881 435.811 408.883 435.817 408.884 435.823C408.947 435.886 409.019 435.957 409.074 436.02C410.338 437.38 411.556 438.794 412.709 440.249C414.966 442.96 416.785 446.008 418.099 449.282C419.104 452.011 419.458 454.936 419.135 457.825C419.111 458.118 419.071 458.402 419.032 458.695C419 458.924 418.969 459.153 418.929 459.39C418.408 462.559 417.507 465.736 417.76 468.969C417.913 470.625 418.416 472.23 419.235 473.678C420.054 475.126 421.169 476.384 422.509 477.37C423.42 478.074 424.394 478.693 425.418 479.219C426.882 479.974 428.407 480.603 429.978 481.1H433.084C432.665 480.981 432.254 480.863 431.835 480.744C430.349 480.325 428.889 479.816 427.465 479.219C426.651 478.879 425.859 478.488 425.094 478.049C421.917 476.224 419.269 473.426 418.716 469.688C418.234 466.416 419.166 463.144 419.719 459.943C419.814 459.39 419.901 458.845 419.949 458.299C420.326 455.528 420.097 452.707 419.277 450.033C418.14 446.697 416.44 443.58 414.251 440.818C412.896 439.019 411.451 437.291 409.92 435.641C409.73 435.428 409.532 435.214 409.327 435.001C403.739 429.122 397.287 424.131 390.193 420.198H390.185C384.911 417.262 379.315 414.944 373.51 413.291H373.502C373.241 413.212 372.972 413.133 372.711 413.062C372.166 412.919 372.04 413.781 372.577 413.931Z" fill="white"/>
<path d="M409.639 435.941C411.548 433.926 412.679 431.298 412.829 428.526C412.979 425.755 412.139 423.02 410.458 420.81C410.117 420.365 409.408 420.874 409.75 421.321C411.318 423.375 412.101 425.923 411.956 428.504C411.811 431.084 410.748 433.528 408.959 435.394C408.571 435.8 409.253 436.345 409.639 435.941Z" fill="white"/>
<path d="M419.409 457.822C413.738 458.026 408.199 456.086 403.896 452.388C403.47 452.021 402.923 452.701 403.348 453.068C407.834 456.908 413.602 458.915 419.503 458.689C420.065 458.667 419.968 457.8 419.409 457.822Z" fill="white"/>
<path d="M389.467 420.469C388.891 421.402 388.092 422.178 387.142 422.727C386.192 423.275 385.121 423.579 384.024 423.611C383.462 423.626 383.559 424.494 384.118 424.479C385.329 424.438 386.512 424.101 387.563 423.497C388.614 422.893 389.502 422.042 390.147 421.016C390.216 420.924 390.248 420.81 390.236 420.696C390.223 420.582 390.168 420.477 390.081 420.402C389.991 420.33 389.875 420.297 389.76 420.309C389.646 420.322 389.54 420.379 389.467 420.469Z" fill="white"/>
<path d="M86.883 459.58C84.889 467.06 79.6499 473.289 73.3243 477.827C72.293 478.57 71.2342 479.257 70.1616 479.904C69.8316 480.096 69.5016 480.302 69.1578 480.481C68.7865 480.701 68.4152 480.908 68.044 481.1H38.3004C37.7641 480.014 37.2415 478.914 36.719 477.827C23.9718 451.04 15.0198 422.135 16.5461 392.694C17.1517 381.275 19.5508 370.022 23.6554 359.348C31.8236 338.075 46.7298 319.662 67.2326 310.394C67.7414 310.16 68.2777 309.927 68.8002 309.707C68.6352 310.298 68.4702 310.875 68.3052 311.467C66.1056 319.391 64.5512 327.48 63.6573 335.655C63.5748 336.287 63.5061 336.92 63.4511 337.566C61.4975 357.282 63.2323 377.189 68.5665 396.27C68.5803 396.311 68.594 396.366 68.6077 396.407C69.7766 400.629 71.1334 404.786 72.6781 408.879C73.8882 412.111 75.1946 415.301 76.6246 418.436C82.5926 431.596 90.5957 445.622 86.883 459.58Z" fill="#E6E6E6"/>
<path d="M69.1661 310.326C68.8773 310.711 68.5885 311.082 68.2998 311.467C62.26 319.471 57.1313 328.124 53.0086 337.264C52.7885 337.718 52.5823 338.172 52.4035 338.639C46.7546 351.403 43.1267 364.968 41.6502 378.847C41.6342 378.943 41.625 379.039 41.6227 379.136C41.2789 382.381 41.0727 385.654 40.9902 388.927C40.8252 395.046 41.2101 401.248 42.9566 407.133C44.4232 411.974 46.9933 416.408 50.4646 420.087C50.8083 420.458 51.1522 420.829 51.5234 421.187C51.7985 421.476 52.1009 421.764 52.3898 422.039C55.1675 424.693 58.2064 427.155 60.8192 430.001C62.0167 431.278 63.0981 432.658 64.0506 434.127C67.2547 439.146 67.791 445.073 66.2509 450.766C64.3807 457.724 60.1041 463.595 55.7313 469.192C53.5449 471.997 51.2897 474.83 49.337 477.828C48.622 478.9 47.9619 479.987 47.3569 481.1H45.6243C46.2018 479.987 46.8344 478.9 47.5219 477.828C52.541 469.921 59.6778 463.128 63.3769 454.423C65.8796 448.552 66.6359 441.896 63.4731 436.134C62.5462 434.459 61.4246 432.899 60.1316 431.486C57.6152 428.64 54.6037 426.206 51.8672 423.635C51.1796 422.988 50.5059 422.328 49.8595 421.641C46.4331 418.16 43.789 413.987 42.104 409.402C40.055 403.641 39.4363 397.425 39.4363 391.347C39.4363 387.442 39.6425 383.509 40.0276 379.604C40.0688 379.109 40.1238 378.6 40.1788 378.091C42.9909 353.516 52.3303 330.141 67.2271 310.395C67.5022 310.01 67.791 309.638 68.0797 309.267C68.6711 308.497 69.7574 309.569 69.1661 310.326Z" fill="white"/>
<path d="M40.7358 379.735C35.9729 378.935 31.6494 376.468 28.5375 372.774C25.4255 369.081 23.7278 364.401 23.7475 359.572C23.7501 359.375 23.8291 359.187 23.9678 359.047C24.1064 358.907 24.294 358.826 24.4909 358.822C24.6878 358.818 24.8787 358.89 25.0234 359.024C25.168 359.157 25.2551 359.342 25.2663 359.539C25.2397 364.036 26.8216 368.395 29.7264 371.828C32.6313 375.261 36.6678 377.543 41.1074 378.262C42.072 378.419 41.6949 379.891 40.7358 379.735Z" fill="white"/>
<path d="M50.0861 420.363C58.1781 414.707 63.8409 406.209 65.9454 396.563C66.1532 395.607 67.6256 395.98 67.4181 396.935C65.2094 406.968 59.2984 415.8 50.8647 421.668C50.0605 422.226 49.2862 420.919 50.0861 420.363L50.0861 420.363Z" fill="white"/>
<path d="M52.5584 337.104C54.3368 337.798 56.2596 338.039 58.1542 337.806C60.0487 337.572 61.8557 336.872 63.4127 335.768C64.2095 335.2 64.9829 336.507 64.1914 337.072C62.4653 338.284 60.4688 339.055 58.3762 339.317C56.2836 339.58 54.1586 339.325 52.1868 338.577C51.9951 338.522 51.8314 338.396 51.7292 338.225C51.6269 338.054 51.5937 337.85 51.6363 337.655C51.6864 337.46 51.8115 337.293 51.9841 337.19C52.1568 337.087 52.3632 337.056 52.5584 337.104Z" fill="white"/>
<path d="M172.328 363.502C171.847 363.874 171.352 364.245 170.87 364.63C164.342 369.626 158.23 375.145 152.595 381.131C152.155 381.585 151.715 382.053 151.289 382.52L151.275 382.534C137.914 397.038 127.35 413.886 120.115 432.23L120.074 432.354C120.06 432.395 120.046 432.423 120.033 432.464C117.165 439.807 114.853 447.354 113.116 455.043C111.438 462.551 110.063 470.596 107.437 477.829C107.038 478.943 106.598 480.043 106.13 481.102H44.9929C45.1992 480.015 45.4192 478.915 45.6392 477.829C48.912 461.891 53.5048 446.174 60.1329 431.488C60.3529 430.993 60.5729 430.498 60.8205 430.003C64.1878 422.657 68.1475 415.598 72.6601 408.895C72.6601 408.893 72.6604 408.891 72.6611 408.889C72.6618 408.888 72.6628 408.886 72.664 408.885C72.6653 408.884 72.6669 408.883 72.6686 408.882C72.6702 408.881 72.672 408.881 72.6739 408.881C75.1518 405.224 77.8138 401.694 80.6495 398.306C88.0038 389.557 96.6911 382.02 106.392 375.975C106.447 375.933 106.515 375.906 106.57 375.865C125.877 363.888 148.759 358.181 170.637 363.117H170.65C171.214 363.241 171.764 363.365 172.328 363.502Z" fill="#E6E6E6"/>
<path d="M172.262 364.231C171.795 364.354 171.327 364.492 170.873 364.629C161.236 367.383 151.934 371.197 143.137 376.002C142.697 376.235 142.257 376.483 141.817 376.73C129.661 383.515 118.626 392.138 109.103 402.294C109.096 402.301 109.091 402.311 109.09 402.321C108.98 402.431 108.856 402.555 108.76 402.665C106.56 405.03 104.442 407.491 102.434 410.022C98.6389 414.807 95.2012 419.991 93.056 425.739C91.3086 430.487 90.6919 435.576 91.2546 440.604C91.2958 441.113 91.3647 441.608 91.4334 442.117C91.4884 442.515 91.5433 442.914 91.6122 443.327C92.5197 448.841 94.0873 454.369 93.6473 459.993C93.1797 465.933 90.0445 470.994 85.3829 474.61C83.7982 475.836 82.1042 476.913 80.3225 477.828C77.775 479.142 75.1207 480.236 72.3881 481.101H66.9839C67.7127 480.895 68.4278 480.688 69.1566 480.482C71.7428 479.752 74.2823 478.866 76.7609 477.828C78.1769 477.236 79.5546 476.556 80.8862 475.793C86.4142 472.617 91.0208 467.749 91.9833 461.244C92.8222 455.551 91.1995 449.858 90.237 444.289C90.072 443.327 89.9207 442.378 89.8382 441.429C89.1816 436.607 89.5804 431.699 91.0071 427.045C92.8358 421.201 96.0812 415.88 99.7527 411.012C102.109 407.883 104.624 404.876 107.288 402.005C107.618 401.634 107.962 401.262 108.32 400.891C118.042 390.663 129.269 381.977 141.611 375.135H141.625C150.802 370.026 160.538 365.993 170.64 363.117H170.653C171.107 362.979 171.575 362.842 172.028 362.718C172.977 362.47 173.197 363.969 172.262 364.231Z" fill="white"/>
<path d="M107.771 402.527C104.45 399.02 102.483 394.448 102.222 389.625C101.961 384.802 103.423 380.044 106.346 376.2C106.941 375.424 108.174 376.311 107.579 377.088C104.85 380.662 103.489 385.095 103.741 389.585C103.993 394.076 105.842 398.328 108.955 401.575C109.63 402.281 108.443 403.229 107.771 402.527Z" fill="white"/>
<path d="M90.7803 440.595C100.647 440.951 110.285 437.575 117.773 431.14C118.514 430.502 119.465 431.686 118.725 432.324C110.92 439.005 100.883 442.498 90.6169 442.105C89.6383 442.067 89.8071 440.557 90.7803 440.595Z" fill="white"/>
<path d="M142.879 375.604C143.882 377.228 145.272 378.578 146.925 379.532C148.578 380.487 150.442 381.016 152.35 381.072C153.329 381.097 153.159 382.607 152.187 382.582C150.079 382.51 148.021 381.924 146.192 380.873C144.363 379.823 142.82 378.34 141.696 376.556C141.576 376.396 141.521 376.197 141.543 375.999C141.564 375.801 141.66 375.618 141.812 375.488C141.969 375.363 142.169 375.305 142.369 375.326C142.569 375.348 142.752 375.448 142.879 375.604L142.879 375.604Z" fill="white"/>
<path d="M495.478 480.241C495.478 480.365 495.454 480.487 495.407 480.602C495.359 480.716 495.29 480.82 495.203 480.907C495.115 480.994 495.012 481.064 494.897 481.111C494.783 481.158 494.661 481.182 494.537 481.182H1.94048C1.69105 481.182 1.45183 481.083 1.27546 480.906C1.09908 480.73 1 480.491 1 480.241C1 479.992 1.09908 479.753 1.27546 479.576C1.45183 479.4 1.69105 479.301 1.94048 479.301H494.537C494.661 479.3 494.783 479.325 494.897 479.372C495.012 479.419 495.115 479.488 495.203 479.575C495.29 479.663 495.359 479.767 495.407 479.881C495.454 479.995 495.478 480.118 495.478 480.241Z" fill="#CCCCCC"/>
<path d="M305.344 129.599H243.699C240.958 124.497 236.816 120.145 243.699 109.895C243.699 103.091 246.339 96.5531 251.063 91.6571C255.788 86.761 262.228 83.8892 269.027 83.6464C282.361 79.6608 291.965 87.7537 294.575 100.718L305.344 129.599Z" fill="#2F2E41"/>
<path d="M183.121 140.306C184.242 140.429 185.322 140.797 186.286 141.383C187.249 141.969 188.072 142.759 188.697 143.697C189.322 144.636 189.734 145.7 189.903 146.815C190.073 147.93 189.995 149.068 189.677 150.15L237.518 189.941L224.226 195.061L179.546 155.288C177.764 154.633 176.285 153.347 175.388 151.673C174.491 150 174.238 148.056 174.679 146.209C175.12 144.362 176.222 142.741 177.778 141.653C179.334 140.565 181.235 140.086 183.121 140.306Z" fill="#FFB6B6"/>
<path d="M238.54 207.124C227.939 207.127 186.578 163.785 184.773 161.888L184.314 161.406L199.625 157.31L236.355 183.942L249.743 161.283C251.224 158.784 253.441 156.804 256.09 155.614C258.74 154.424 261.692 154.083 264.543 154.636C267.067 155.129 269.407 156.304 271.309 158.034C273.211 159.765 274.602 161.983 275.331 164.449C276.06 166.915 276.099 169.533 275.444 172.019C274.788 174.506 273.463 176.765 271.614 178.551L246.289 202.998C244.343 204.873 241.972 206.251 239.379 207.014C239.106 207.09 238.823 207.127 238.54 207.124Z" fill="#0061AE"/>
<path d="M239.355 201.123L244.492 220.486L287.169 229.939L284.403 220.091L292.358 211.619L283.613 197.172L239.355 201.123Z" fill="#FFB8B8"/>
<path d="M235.578 465.243H227.24L223.271 433.082H235.578V465.243Z" fill="#FFB8B8"/>
<path d="M239.977 479.688H233.997L232.93 474.043L230.196 479.688H214.337C213.577 479.688 212.837 479.445 212.224 478.995C211.612 478.544 211.16 477.91 210.933 477.184C210.707 476.459 210.719 475.68 210.967 474.961C211.215 474.242 211.686 473.622 212.311 473.19L224.976 464.443V458.736L238.297 459.531L239.977 479.688Z" fill="#2F2E41"/>
<path d="M340.082 458.159L332.335 461.243L316.754 432.83L328.187 428.279L340.082 458.159Z" fill="#FFB8B8"/>
<path d="M349.514 469.954L343.958 472.165L340.879 467.315L340.427 473.571L325.692 479.436C324.986 479.717 324.208 479.766 323.473 479.573C322.737 479.381 322.082 478.959 321.604 478.369C321.125 477.778 320.848 477.05 320.812 476.29C320.777 475.531 320.985 474.78 321.407 474.148L329.938 461.337L327.828 456.035L340.498 451.847L349.514 469.954Z" fill="#2F2E41"/>
<path d="M292.186 213.867L291.394 213.18C291.161 212.98 267.766 193.245 238.591 211.671L237.646 212.267L231.671 185.976C230.975 182.953 231.134 179.797 232.128 176.858C233.122 173.92 234.913 171.316 237.301 169.336L258.364 151.812L265.752 148.118L264.814 142.021C264.634 140.823 264.869 139.598 265.482 138.552C266.094 137.506 267.047 136.701 268.18 136.271L279.659 131.967C280.943 131.479 282.366 131.513 283.625 132.06C284.883 132.608 285.878 133.626 286.397 134.897L287.613 137.84L290.218 136.924C291.798 136.348 293.476 136.09 295.156 136.165C296.835 136.24 298.483 136.647 300.005 137.361C301.532 138.101 302.886 139.154 303.98 140.45C305.074 141.746 305.884 143.258 306.358 144.887C310.836 160.032 309.636 176.29 302.981 190.613L292.186 213.867Z" fill="#0061AE"/>
<path d="M238.793 450.468H221.545L226.312 369.438L222.827 314.514L222.835 314.47L235.831 235.739C236.853 229.53 239.616 223.739 243.798 219.039L243.956 218.86L287.45 229.602L291.823 239.573C306.755 248.454 311.47 298.535 311.664 300.668L317.986 363.098L333.449 439.613L322.559 445.476L322.377 445.114L287.998 376.751L266.287 304.659L252.383 369.543L238.793 450.468Z" fill="#2F2E41"/>
<path d="M308.366 279.136C307.571 278.337 306.96 277.373 306.578 276.312C306.195 275.251 306.05 274.119 306.152 272.996C306.255 271.873 306.602 270.786 307.17 269.812C307.738 268.837 308.512 267.999 309.439 267.357L297.157 206.355L310.72 210.71L320.551 269.714C321.527 271.342 321.872 273.272 321.521 275.138C321.169 277.003 320.145 278.675 318.644 279.837C317.142 280.998 315.266 281.568 313.372 281.439C311.478 281.31 309.696 280.491 308.366 279.136V279.136Z" fill="#FFB6B6"/>
<path d="M290.23 150.072L298.645 143.72C298.645 143.72 306.068 143.194 307.383 156.581C308.698 169.968 311.397 196.057 311.397 196.057L324.274 255.697L306.449 259.609L292.658 195.248L284.384 176.135L290.23 150.072Z" fill="#0061AE"/>
<path d="M265.058 128.896C276.396 128.896 285.587 119.704 285.587 108.366C285.587 97.0278 276.396 87.8364 265.058 87.8364C253.72 87.8364 244.528 97.0278 244.528 108.366C244.528 119.704 253.72 128.896 265.058 128.896Z" fill="#FFB8B8"/>
<path d="M276.78 88.4396C273.235 84.9302 268.446 82.9643 263.458 82.9702H259.506C254.476 82.9702 249.651 84.9686 246.094 88.5257C242.537 92.0828 240.539 96.9073 240.539 101.938V101.938C243.99 104.93 260.699 104.315 270.571 103.518C269.863 113.803 261.126 123.909 263.458 129.599H302.974V125.647C306.357 108.284 293.725 93.8007 276.78 88.4396Z" fill="#2F2E41"/>
<path d="M98.6763 356.025C105.66 356.025 111.321 350.364 111.321 343.38C111.321 336.397 105.66 330.735 98.6763 330.735C91.6926 330.735 86.0312 336.397 86.0312 343.38C86.0312 350.364 91.6926 356.025 98.6763 356.025Z" fill="#F2F2F2"/>
<path d="M452.645 84.2901C459.629 84.2901 465.29 78.6287 465.29 71.6451C465.29 64.6614 459.629 59 452.645 59C445.661 59 440 64.6614 440 71.6451C440 78.6287 445.661 84.2901 452.645 84.2901Z" fill="#F2F2F2"/>
<path d="M410.46 405.42C416.134 405.42 420.734 400.82 420.734 395.146C420.734 389.472 416.134 384.872 410.46 384.872C404.785 384.872 400.186 389.472 400.186 395.146C400.186 400.82 404.785 405.42 410.46 405.42Z" fill="#F2F2F2"/>
<path d="M362.247 191.244C367.922 191.244 372.521 186.644 372.521 180.97C372.521 175.296 367.922 170.696 362.247 170.696C356.573 170.696 351.973 175.296 351.973 180.97C351.973 186.644 356.573 191.244 362.247 191.244Z" fill="#F2F2F2"/>
<path d="M151.901 89.8858C157.961 75.8487 162.859 59.9402 159.062 44.6201C156.091 32.6307 147.578 21.1367 135.119 18.0717C128.709 16.5898 121.99 17.2466 115.988 19.9419C109.987 22.6373 105.032 27.223 101.881 32.9987C98.7923 38.8412 97.5615 45.4877 98.3535 52.0488C99.1662 58.5657 102.003 65.7414 107.976 69.1569C113.429 72.2748 121.032 71.4085 124.154 65.4918C126.778 60.5179 125.757 54.127 122.311 49.8227C118.107 44.5713 111.303 42.2036 104.899 41.0329C98.1675 39.7956 91.2785 39.6729 84.5072 40.6696C71.1884 42.6436 58.5995 49.4231 50.9837 60.7239C43.9455 71.1676 41.2947 85.0056 45.9776 96.9377C50.6462 108.833 61.3472 117.236 73.1779 121.377C87.694 126.458 103.642 124.648 118.155 120.534C121.976 119.451 125.745 118.196 129.477 116.839C130.9 116.322 130.285 114.03 128.847 114.553C114.705 119.693 99.5337 123.53 84.3934 121.596C72.7025 120.102 61.1863 114.577 53.6341 105.379C49.9291 100.892 47.4528 95.52 46.4477 89.7885C45.525 83.9427 46.0292 77.9605 47.9172 72.3515C49.8667 66.5529 53.0441 61.2429 57.2324 56.7839C61.4208 52.3249 66.5217 48.8217 72.1872 46.5134C78.0971 44.0723 84.39 42.6884 90.7788 42.4247C97.1342 42.0655 103.504 42.803 109.609 44.605C115.051 46.2914 120.845 49.5819 122.646 55.3559C124.081 59.9563 123.003 66.0832 118.027 68.0194C116.575 68.5247 115.029 68.7051 113.499 68.5479C111.969 68.3907 110.492 67.8997 109.173 67.1096C106.44 65.4085 104.288 62.9181 103.001 59.9677C100.491 54.303 99.8401 47.9887 101.142 41.9311C102.443 35.8734 105.631 30.3839 110.246 26.2503C114.926 22.3021 120.768 19.9907 126.882 19.6679C132.798 19.3608 138.643 21.0743 143.457 24.527C148.161 28.0202 151.882 32.6711 154.257 38.0275C160.179 50.8011 158.228 65.3531 153.879 78.286C152.694 81.8119 151.328 85.2746 149.854 88.6892C149.256 90.0754 151.298 91.2844 151.901 89.8858Z" fill="#F2F2F2"/>
<path d="M153.604 135.922C167.135 135.922 178.104 124.954 178.104 111.423C178.104 97.8918 167.135 86.9229 153.604 86.9229C140.073 86.9229 129.104 97.8918 129.104 111.423C129.104 124.954 140.073 135.922 153.604 135.922Z" fill="white"/>
<path d="M175.733 111.422C175.732 115.986 174.321 120.438 171.692 124.169C169.063 127.899 165.345 130.726 161.048 132.263C156.75 133.799 152.083 133.969 147.685 132.75C143.286 131.531 139.373 128.982 136.479 125.453C135.816 124.642 135.213 123.785 134.674 122.888C134.111 121.946 133.607 120.97 133.166 119.965C132.719 118.864 132.355 117.731 132.078 116.576C131.807 115.518 131.631 114.438 131.55 113.349C131.155 108.767 132.194 104.176 134.522 100.21C136.851 96.2438 140.354 93.0995 144.548 91.2117C147.664 89.8182 151.06 89.1634 154.47 89.2983C157.881 89.4331 161.214 90.3541 164.21 91.9892C167.206 93.6244 169.784 95.9296 171.743 98.725C173.701 101.52 174.987 104.73 175.501 108.105C175.551 108.412 175.552 108.426 175.566 108.545C175.603 108.861 175.634 109.177 175.659 109.494C175.708 110.136 175.73 110.778 175.733 111.422C175.75 114.472 180.492 114.479 180.475 111.422C180.492 104.468 177.82 97.7767 173.017 92.7472C168.215 87.7177 161.655 84.7393 154.707 84.4346C147.76 84.1299 140.964 86.5226 135.74 91.1124C130.516 95.7022 127.268 102.134 126.676 109.062C126.084 115.991 128.193 122.881 132.563 128.29C136.932 133.7 143.224 137.211 150.122 138.09C157.02 138.968 163.991 137.146 169.577 133.005C175.163 128.863 178.932 122.722 180.095 115.866C180.333 114.396 180.46 112.911 180.475 111.422C180.492 108.37 175.75 108.366 175.733 111.422Z" fill="#F2F2F2"/>
<path d="M154.393 51.3585C167.924 51.3585 178.893 40.3896 178.893 26.8587C178.893 13.3278 167.924 2.35889 154.393 2.35889C140.862 2.35889 129.894 13.3278 129.894 26.8587C129.894 40.3896 140.862 51.3585 154.393 51.3585Z" fill="white"/>
<path d="M176.522 26.8583C176.522 31.4222 175.11 35.8744 172.481 39.6052C169.852 43.3359 166.135 46.1629 161.837 47.6991C157.539 49.2353 152.872 49.4056 148.474 48.1866C144.076 46.9676 140.162 44.419 137.268 40.8897C136.605 40.079 136.002 39.2216 135.463 38.3241C134.9 37.3823 134.396 36.4063 133.955 35.4016C133.508 34.3008 133.144 33.1677 132.867 32.012C132.596 30.9543 132.42 29.8748 132.339 28.786C131.944 24.2039 132.983 19.6123 135.311 15.6463C137.64 11.6804 141.143 8.53599 145.337 6.64824C148.453 5.25477 151.849 4.59993 155.259 4.7348C158.67 4.86967 162.003 5.79059 164.999 7.42575C167.995 9.0609 170.573 11.3661 172.532 14.1615C174.49 16.9569 175.777 20.167 176.29 23.5413C176.34 23.8484 176.341 23.8624 176.355 23.982C176.392 24.2975 176.423 24.6137 176.448 24.9307C176.498 25.5723 176.519 26.215 176.522 26.8583C176.539 29.9087 181.281 29.9152 181.264 26.8583C181.281 19.9044 178.609 13.2132 173.807 8.18372C169.004 3.15422 162.444 0.175783 155.496 -0.128885C148.549 -0.433553 141.753 1.95914 136.529 6.54894C131.305 11.1387 128.057 17.5703 127.465 24.499C126.873 31.4277 128.982 38.3171 133.352 43.7268C137.721 49.1365 144.013 52.6477 150.911 53.5263C157.809 54.405 164.78 52.583 170.366 48.4413C175.952 44.2996 179.721 38.1589 180.884 31.303C181.122 29.833 181.249 28.3473 181.264 26.8583C181.281 23.8065 176.539 23.8029 176.522 26.8583Z" fill="#F2F2F2"/>
<path d="M59.5577 138.294C73.0886 138.294 84.0575 127.325 84.0575 113.794C84.0575 100.263 73.0886 89.2939 59.5577 89.2939C46.0268 89.2939 35.0579 100.263 35.0579 113.794C35.0579 127.325 46.0268 138.294 59.5577 138.294Z" fill="white"/>
<path d="M81.6866 113.793C81.6859 118.357 80.2744 122.809 77.6455 126.54C75.0166 130.271 71.2989 133.098 67.0012 134.634C62.7036 136.17 58.0361 136.341 53.638 135.122C49.2399 133.903 45.326 131.354 42.4323 127.825C41.7697 127.014 41.1663 126.157 40.6269 125.259C40.064 124.317 39.5606 123.341 39.1195 122.337C38.672 121.236 38.3082 120.103 38.0313 118.947C37.7608 117.889 37.5842 116.81 37.5036 115.721C37.1085 111.139 38.1471 106.547 40.4756 102.581C42.8042 98.6154 46.3076 95.471 50.5014 93.5833C53.6173 92.1898 57.0129 91.535 60.4235 91.6699C63.8341 91.8047 67.1674 92.7257 70.1635 94.3608C73.1596 95.996 75.7374 98.3011 77.696 101.097C79.6546 103.892 80.9409 107.102 81.4546 110.476C81.5044 110.783 81.505 110.798 81.5192 110.917C81.5567 111.233 81.5876 111.549 81.6119 111.866C81.6619 112.507 81.6831 113.15 81.6866 113.793C81.7036 116.844 86.4455 116.85 86.4286 113.793C86.4452 106.839 83.7731 100.148 78.9709 95.1188C74.1686 90.0893 67.608 87.1108 60.6608 86.8062C53.7135 86.5015 46.9174 88.8942 41.6933 93.484C36.4692 98.0738 33.2216 104.505 32.6294 111.434C32.0373 118.363 34.1464 125.252 38.5159 130.662C42.8854 136.072 49.177 139.583 56.0752 140.461C62.9734 141.34 69.9442 139.518 75.5303 135.376C81.1163 131.235 84.8851 125.094 86.0487 118.238C86.2862 116.768 86.4132 115.282 86.4286 113.793C86.4455 110.742 81.7036 110.738 81.6866 113.793Z" fill="#F2F2F2"/>
<path d="M162.166 37.5001L164.144 32.0607C164.347 31.5038 164.1 30.8835 163.57 30.6184L154.521 26.0943C154.193 25.9301 153.806 25.9301 153.478 26.0943L144.43 30.6184C143.9 30.8835 143.653 31.5038 143.855 32.0607L145.833 37.5001" stroke="#0061AE" stroke-width="2" stroke-linejoin="round"/>
<path d="M160.417 21.1665H147.583C146.939 21.1665 146.417 21.6888 146.417 22.3332V29.3332L153.511 26.0588C153.821 25.9157 154.179 25.9157 154.489 26.0588L161.583 29.3332V22.3332C161.583 21.6888 161.061 21.1665 160.417 21.1665Z" fill="#0061AE" stroke="#0061AE" stroke-width="2" stroke-linecap="round" stroke-linejoin="round"/>
<path d="M156.917 21.1668V16.5002C156.917 15.8558 156.395 15.3335 155.75 15.3335H152.25C151.606 15.3335 151.083 15.8558 151.083 16.5002V21.1668" stroke="#0061AE" stroke-width="2" stroke-linecap="round" stroke-linejoin="round"/>
<path d="M154 31.6665V36.3332" stroke="#0061AE" stroke-width="2" stroke-linecap="round"/>
<path d="M142.333 38.6667C144.667 38.6667 144.667 37.5 146.417 37.5C148.167 37.5 148.167 38.6667 149.917 38.6667C151.667 38.6667 151.958 37.5 154 37.5C156.042 37.5 156.333 38.6667 158.083 38.6667C159.833 38.6667 159.833 37.5 161.583 37.5C163.333 37.5 163.333 38.6667 165.667 38.6667" stroke="#0061AE" stroke-width="2" stroke-linecap="round" stroke-linejoin="round"/>
<path d="M163 103H152C151.448 103 151 103.448 151 104V115C151 115.552 151.448 116 152 116H163C163.552 116 164 115.552 164 115V104C164 103.448 163.552 103 163 103Z" fill="#0061AE" stroke="#0061AE" stroke-width="2" stroke-linejoin="round"/>
<path d="M144 116H151V109H147.5L144 112.231V116Z" stroke="#0061AE" stroke-width="2" stroke-linejoin="round"/>
<path d="M151 117C151 118.105 150.105 119 149 119C147.895 119 147 118.105 147 117" stroke="#0061AE" stroke-width="2" stroke-linecap="round" stroke-linejoin="round"/>
<path d="M162 117C162 118.105 161.105 119 160 119C158.895 119 158 118.105 158 117" stroke="#0061AE" stroke-width="2" stroke-linecap="round" stroke-linejoin="round"/>
<path d="M69.4999 120.417H64.8333" stroke="#0061AE" stroke-width="2" stroke-linecap="round"/>
<path d="M63.0833 124.5H60.75" stroke="#0061AE" stroke-width="2" stroke-linecap="round"/>
<path d="M53.1666 112.833L49.6666 109.917H47.3333C47.3333 109.917 50.5334 115.75 51.9999 115.75H70.6666L67.1666 112.833H53.1666Z" fill="#0061AE" stroke="#0061AE" stroke-width="2" stroke-linecap="round" stroke-linejoin="round"/>
<path d="M62.4999 112.833L55.8853 108.167H54.3333L56.0833 112.833" stroke="#0061AE" stroke-width="2" stroke-linecap="round" stroke-linejoin="round"/>
<path d="M62.5001 115.75L55.0334 122.75H53.1667L55.6557 115.75" stroke="#0061AE" stroke-width="2" stroke-linecap="round" stroke-linejoin="round"/>
<path d="M63.6667 106.417C63.6667 107 61.9167 107.583 61.9167 107.583H67.7501C67.7501 107.583 69.4333 107.583 69.9344 106.25C70.4509 104.876 69.5259 102.917 67.763 102.917C66.0001 102.917 66.0001 104.667 66.0001 104.667C66.0001 104.667 64.9182 104.333 64.2501 104.667C63.5819 105 63.6667 105.833 63.6667 106.417Z" fill="#0061AE" stroke="#0061AE" stroke-width="2" stroke-linecap="round" stroke-linejoin="round"/>
</g>
<defs>
<clipPath id="clip0_8020_2400">
<rect width="496" height="482" fill="white"/>
</clipPath>
</defs>
</svg>
