<svg width="40" height="40" viewBox="0 0 40 40" fill="none" xmlns="http://www.w3.org/2000/svg">
<path fill-rule="evenodd" clip-rule="evenodd" d="M9.06196 20.099L12.3426 14.418C12.0522 14.3363 11.7618 14.2728 11.4623 14.2365C10.6864 14.1366 9.93317 14.1865 9.20716 14.3817C8.47661 14.5768 7.80051 14.9125 7.17886 15.3845C6.55722 15.8564 6.04447 16.4417 5.64063 17.1405C5.23678 17.8393 4.99175 18.5698 4.89647 19.3321C4.80571 20.0945 4.85563 20.8432 5.05528 21.5692C5.2504 22.2997 5.58618 22.9713 6.05808 23.5975C6.52999 24.2191 7.11534 24.7319 7.81412 25.1357C8.51291 25.5395 9.24346 25.7891 10.0058 25.8799C10.7681 25.9706 11.5168 25.9207 12.2428 25.7256C12.9733 25.5305 13.6449 25.2038 14.2575 24.7409C14.8746 24.2826 15.3828 23.7018 15.7866 23.003L16.7486 21.3423L20.5057 14.8445C21.1818 13.6693 22.0349 12.7028 23.0558 11.945C24.0768 11.1872 25.1885 10.6472 26.3909 10.3251C27.5934 10.0029 28.8322 9.92122 30.1072 10.0755C31.3823 10.2298 32.5983 10.6382 33.7463 11.3006C34.9216 11.9767 35.8881 12.8298 36.6459 13.8508C37.4036 14.8717 37.9527 15.988 38.2885 17.1949C38.6242 18.4019 38.715 19.6407 38.5698 20.9021C38.4246 22.1681 38.0117 23.3842 37.331 24.5594C36.6685 25.7074 35.82 26.6694 34.7945 27.4408C33.7645 28.2122 32.6437 28.7612 31.4186 29.0879C30.198 29.4146 28.9547 29.5054 27.6932 29.3602C26.4272 29.215 25.2112 28.8021 24.0359 28.1214L21.7535 26.8055C23.5187 23.7517 25.2792 20.698 27.0444 17.6442L30.57 19.677L27.2894 25.358C27.5798 25.4397 27.8702 25.5032 28.1697 25.5395C28.9456 25.6394 29.6988 25.5895 30.4248 25.3943C31.1554 25.1992 31.8315 24.8634 32.4531 24.3915C33.0748 23.9196 33.5875 23.3343 33.9914 22.6355C34.3952 21.9367 34.6403 21.2062 34.7355 20.4439C34.8263 19.6815 34.7764 18.9328 34.5767 18.2068C34.3816 17.4763 34.0458 16.8047 33.5739 16.1785C33.102 15.5569 32.5167 15.0441 31.8179 14.6403C31.1191 14.2365 30.3885 13.9869 29.6262 13.8961C28.8639 13.8054 28.1152 13.8553 27.3892 14.0504C26.6587 14.2455 25.9871 14.5722 25.3745 15.0351C24.7574 15.4934 24.2492 16.0742 23.8454 16.773L22.8879 18.4337L19.1308 24.9315C18.4547 26.1067 17.6017 27.0732 16.5807 27.831C15.5598 28.5888 14.4481 29.1288 13.2456 29.4509C12.0431 29.7731 10.8044 29.8548 9.52933 29.7005C8.25427 29.5462 7.0382 29.1378 5.89019 28.4754C4.71496 27.7993 3.74846 26.9462 2.99068 25.9252C2.23291 24.9043 1.68386 23.788 1.34808 22.581C1.0123 21.3741 0.921552 20.1353 1.06675 18.8739C1.21196 17.6079 1.62488 16.3918 2.30551 15.2166C2.968 14.0686 3.81199 13.1111 4.84201 12.3397C5.87204 11.5684 6.99282 11.0193 8.21797 10.6926C9.43858 10.3659 10.6819 10.2752 11.9433 10.4204C13.2093 10.5656 14.4254 10.9785 15.6006 11.6591L17.883 12.975C16.1179 16.0288 14.3573 19.0826 12.5922 22.1364L9.06196 20.099Z" fill="#0061AE"/>
</svg>
