<svg width="158" height="20" viewBox="0 0 158 20" fill="none" xmlns="http://www.w3.org/2000/svg">
<path fill-rule="evenodd" clip-rule="evenodd" d="M58.2951 2.1762V4.87152H53.3038C52.0106 4.87152 51.0622 4.94866 50.4724 5.0984C49.8779 5.24814 49.3833 5.54308 48.9886 5.98322C48.7208 6.2827 48.5348 6.58672 48.435 6.89074C48.3352 7.19476 48.2489 7.7075 48.1763 8.42898H58.2951V11.1243H48.1763C48.3215 12.422 48.7798 13.325 49.5512 13.8287C50.3226 14.3324 51.6385 14.5865 53.4898 14.5865H58.2906V17.2818H53.2993C51.9516 17.2818 50.7628 17.2137 49.7373 17.0776C48.1174 16.8507 46.8332 16.2563 45.8803 15.2898C44.5145 13.9013 43.8293 12.0227 43.8293 9.65412C43.8293 7.02687 44.7913 4.98496 46.7152 3.51932C47.3823 3.02019 48.0856 2.67533 48.8343 2.48022C49.583 2.2851 50.5813 2.18528 51.8427 2.18528H58.2951V2.1762ZM69.2216 2.08545C71.0185 2.08545 72.6021 2.34409 73.9679 2.85684C75.5697 3.47395 76.695 4.50851 77.3393 5.956C77.843 7.08586 78.0926 8.41536 78.0926 9.93999C78.0926 11.4782 77.7885 12.8168 77.176 13.9467C76.4046 15.2898 75.2157 16.2336 73.614 16.7781C72.4251 17.1683 71.0593 17.368 69.512 17.368C67.4792 17.368 65.7186 17.0504 64.2257 16.4151C62.9688 15.8887 62.0023 15.0584 61.3398 13.924C60.6728 12.7941 60.3416 11.4192 60.3416 9.80386C60.3416 6.9225 61.1946 4.87152 62.9053 3.64637C64.3437 2.62088 66.4491 2.09906 69.2216 2.08545ZM69.2488 4.62195C67.4882 4.62195 66.2268 5.10294 65.4736 6.06944C64.861 6.82268 64.557 8.03874 64.557 9.71311C64.557 11.4782 64.9336 12.776 65.6914 13.6063C66.4491 14.4231 67.6425 14.827 69.2806 14.827C70.8642 14.827 72.0258 14.414 72.7745 13.5837C73.5232 12.7533 73.8953 11.4691 73.8953 9.7358C73.8953 8.15218 73.5913 6.94519 72.9787 6.11481C72.2709 5.1347 71.0276 4.63557 69.2488 4.62195ZM94.2826 2.1762V4.87152H89.2913C87.9981 4.87152 87.0543 4.94866 86.4598 5.0984C85.8654 5.24814 85.3708 5.54308 84.9761 5.98322C84.7083 6.2827 84.5223 6.58672 84.4225 6.89074C84.3226 7.19476 84.2364 7.7075 84.1638 8.42898H94.2826V11.1243H84.1638C84.309 12.422 84.7673 13.325 85.5387 13.8287C86.3101 14.3324 87.626 14.5865 89.4773 14.5865H94.2781V17.2818H89.2867C87.9391 17.2818 86.7502 17.2137 85.7248 17.0776C84.1048 16.8507 82.8207 16.2563 81.8678 15.2898C80.502 13.9013 79.8168 12.0227 79.8168 9.65412C79.8168 7.02687 80.7788 4.98496 82.7027 3.51932C83.3698 3.02019 84.0731 2.67533 84.8218 2.48022C85.5659 2.2851 86.5687 2.18528 87.8302 2.18528H94.2826V2.1762ZM97.2275 17.2727V14.5774H105.459C106.77 14.5774 107.646 14.473 108.077 14.2598C108.708 13.9421 109.021 13.4657 109.021 12.835C109.021 12.0953 108.653 11.5599 107.913 11.2287C107.501 11.0335 106.834 10.9337 105.917 10.9337H102.573C100.54 10.9337 99.0743 10.6252 98.1758 10.0035C97.6177 9.61328 97.1821 9.11869 96.869 8.53334C96.5559 7.94346 96.3971 7.31273 96.3971 6.6321C96.3971 5.57484 96.7647 4.60834 97.5043 3.73713C98.2258 2.89314 99.3738 2.394 100.957 2.24426C101.497 2.19889 102.296 2.1762 103.358 2.1762H112.288V4.87152H104.22C103.013 4.88513 102.214 4.93051 101.82 5.00765C101.012 5.17554 100.603 5.68828 100.603 6.54588C100.603 7.27189 100.944 7.75288 101.629 7.99337C102.078 8.17487 102.836 8.26562 103.893 8.26562H106.779C108.254 8.26562 109.352 8.36999 110.069 8.58325C111.344 8.94626 112.229 9.57698 112.714 10.4845C113.091 11.2105 113.281 11.9864 113.281 12.8168C113.281 13.7379 113.027 14.5592 112.524 15.2852C111.82 16.3107 110.772 16.9278 109.366 17.1411C108.68 17.2319 107.646 17.2772 106.262 17.2772H97.2275V17.2727ZM130.656 2.1762V17.2727H126.853V11.0245H119.893V17.2727H116.063V2.1762H119.893V8.33369H126.853V2.1762H130.656ZM134.322 17.2727V2.1762H138.152V17.2727H134.322ZM145.63 12V17.2727H141.8V2.1762H150.784C152.423 2.1762 153.589 2.27603 154.292 2.47114C155.481 2.80239 156.416 3.48756 157.096 4.5312C157.6 5.3162 157.854 6.16927 157.854 7.09039C157.854 7.86178 157.686 8.58779 157.355 9.27296C157.024 9.95814 156.561 10.5208 155.966 10.9609C155.426 11.3512 154.855 11.6234 154.251 11.7777C153.648 11.9274 152.826 12.0046 151.783 12.0046H145.63V12ZM145.63 9.30473H150.839C151.774 9.30473 152.432 9.18221 152.808 8.94172C153.366 8.5651 153.643 7.90716 153.643 6.97242C153.643 5.96054 153.221 5.31166 152.377 5.0258C152.073 4.92143 151.588 4.86698 150.921 4.86698H145.634V9.30473H145.63Z" fill="#0061AE"/>
<path fill-rule="evenodd" clip-rule="evenodd" d="M9.06196 10.099L12.3426 4.41795C12.0522 4.33628 11.7618 4.27275 11.4623 4.23645C10.6864 4.13662 9.93317 4.18654 9.20716 4.38165C8.47661 4.57677 7.80051 4.91255 7.17886 5.38446C6.55722 5.85636 6.04447 6.44171 5.64063 7.1405C5.23678 7.83928 4.99175 8.56983 4.89647 9.33215C4.80571 10.0945 4.85563 10.8432 5.05528 11.5692C5.2504 12.2997 5.58618 12.9713 6.05808 13.5975C6.52999 14.2191 7.11534 14.7319 7.81412 15.1357C8.51291 15.5395 9.24346 15.7891 10.0058 15.8799C10.7681 15.9706 11.5168 15.9207 12.2428 15.7256C12.9733 15.5305 13.6449 15.2038 14.2575 14.7409C14.8746 14.2826 15.3828 13.7018 15.7866 13.003L16.7486 11.3423L20.5057 4.84449C21.1818 3.66926 22.0349 2.70275 23.0558 1.94498C24.0768 1.1872 25.1885 0.647232 26.3909 0.325064C27.5934 0.00289636 28.8322 -0.07878 30.1072 0.0754975C31.3823 0.229775 32.5983 0.638156 33.7463 1.30064C34.9216 1.97674 35.8881 2.8298 36.6459 3.85076C37.4036 4.87171 37.9527 5.98795 38.2885 7.19495C38.6242 8.40194 38.715 9.6407 38.5698 10.9021C38.4246 12.1681 38.0117 13.3842 37.331 14.5594C36.6685 15.7074 35.82 16.6694 34.7945 17.4408C33.7645 18.2122 32.6437 18.7612 31.4186 19.0879C30.198 19.4146 28.9547 19.5054 27.6932 19.3602C26.4272 19.215 25.2112 18.8021 24.0359 18.1214L21.7535 16.8055C23.5187 13.7517 25.2792 10.698 27.0444 7.64417L30.57 9.677L27.2894 15.358C27.5798 15.4397 27.8702 15.5032 28.1697 15.5395C28.9456 15.6394 29.6988 15.5895 30.4248 15.3943C31.1554 15.1992 31.8315 14.8634 32.4531 14.3915C33.0748 13.9196 33.5875 13.3343 33.9914 12.6355C34.3952 11.9367 34.6403 11.2062 34.7355 10.4439C34.8263 9.68154 34.7764 8.93284 34.5767 8.20683C34.3816 7.47628 34.0458 6.80472 33.5739 6.17853C33.102 5.55688 32.5167 5.04414 31.8179 4.6403C31.1191 4.23645 30.3885 3.98689 29.6262 3.89613C28.8639 3.80538 28.1152 3.8553 27.3892 4.05041C26.6587 4.24553 25.9871 4.57223 25.3745 5.03506C24.7574 5.49336 24.2492 6.07417 23.8454 6.77295L22.8879 8.43371L19.1308 14.9315C18.4547 16.1067 17.6017 17.0732 16.5807 17.831C15.5598 18.5888 14.4481 19.1288 13.2456 19.4509C12.0431 19.7731 10.8044 19.8548 9.52933 19.7005C8.25427 19.5462 7.0382 19.1378 5.89019 18.4754C4.71496 17.7993 3.74846 16.9462 2.99068 15.9252C2.23291 14.9043 1.68386 13.788 1.34808 12.581C1.0123 11.3741 0.921552 10.1353 1.06675 8.87385C1.21196 7.60787 1.62488 6.3918 2.30551 5.21657C2.968 4.06856 3.81199 3.11113 4.84201 2.33975C5.87204 1.56836 6.99282 1.01931 8.21797 0.692607C9.43858 0.365902 10.6819 0.275151 11.9433 0.420353C13.2093 0.565555 14.4254 0.978474 15.6006 1.65911L17.883 2.97501C16.1179 6.02879 14.3573 9.08258 12.5922 12.1364L9.06196 10.099Z" fill="#0061AE"/>
</svg>
