<svg width="640" height="577" viewBox="0 0 640 577" fill="none" xmlns="http://www.w3.org/2000/svg">
<g clip-path="url(#clip0_8057_1640)">
<path d="M599.25 576.91C600.708 576.91 601.89 575.728 601.89 574.27C601.89 572.812 600.708 571.63 599.25 571.63C597.792 571.63 596.61 572.812 596.61 574.27C596.61 575.728 597.792 576.91 599.25 576.91Z" fill="#0061AE"/>
<path d="M575.31 576.91C576.768 576.91 577.95 575.728 577.95 574.27C577.95 572.812 576.768 571.63 575.31 571.63C573.852 571.63 572.67 572.812 572.67 574.27C572.67 575.728 573.852 576.91 575.31 576.91Z" fill="#0061AE"/>
<path d="M551.38 576.91C551.904 576.912 552.418 576.759 552.855 576.469C553.292 576.179 553.633 575.765 553.835 575.281C554.037 574.797 554.091 574.264 553.99 573.75C553.889 573.235 553.637 572.762 553.267 572.39C552.897 572.018 552.425 571.765 551.911 571.662C551.396 571.559 550.863 571.611 550.378 571.811C549.893 572.011 549.479 572.351 549.187 572.787C548.896 573.223 548.74 573.736 548.74 574.26C548.74 574.961 549.018 575.634 549.512 576.131C550.007 576.627 550.679 576.908 551.38 576.91V576.91Z" fill="#0061AE"/>
<path d="M527.45 576.91C527.974 576.91 528.486 576.755 528.922 576.464C529.358 576.173 529.697 575.759 529.898 575.274C530.099 574.79 530.151 574.257 530.049 573.743C529.947 573.229 529.694 572.757 529.324 572.387C528.953 572.016 528.481 571.764 527.967 571.661C527.453 571.559 526.92 571.612 526.436 571.812C525.951 572.013 525.538 572.352 525.246 572.788C524.955 573.224 524.8 573.736 524.8 574.26C524.8 574.608 524.868 574.953 525.001 575.274C525.135 575.596 525.33 575.888 525.576 576.134C525.822 576.38 526.114 576.576 526.436 576.709C526.757 576.842 527.102 576.91 527.45 576.91V576.91Z" fill="#0061AE"/>
<path d="M503.51 576.91C504.968 576.91 506.15 575.728 506.15 574.27C506.15 572.812 504.968 571.63 503.51 571.63C502.052 571.63 500.87 572.812 500.87 574.27C500.87 575.728 502.052 576.91 503.51 576.91Z" fill="#0061AE"/>
<path d="M480.59 576.595C481.939 576.041 482.582 574.498 482.028 573.15C481.473 571.801 479.931 571.157 478.582 571.712C477.234 572.266 476.59 573.809 477.145 575.157C477.699 576.506 479.242 577.15 480.59 576.595Z" fill="#0061AE"/>
<path d="M455.65 571.66C455.125 571.658 454.612 571.812 454.174 572.103C453.737 572.393 453.396 572.807 453.194 573.291C452.992 573.776 452.939 574.31 453.041 574.825C453.143 575.34 453.395 575.813 453.766 576.184C454.138 576.555 454.611 576.808 455.126 576.91C455.641 577.012 456.174 576.958 456.659 576.756C457.144 576.555 457.557 576.214 457.848 575.776C458.138 575.339 458.292 574.825 458.29 574.3C458.288 573.601 458.009 572.931 457.514 572.436C457.02 571.942 456.35 571.663 455.65 571.66V571.66Z" fill="#0061AE"/>
<path d="M599.25 555.5C600.708 555.5 601.89 554.318 601.89 552.86C601.89 551.402 600.708 550.22 599.25 550.22C597.792 550.22 596.61 551.402 596.61 552.86C596.61 554.318 597.792 555.5 599.25 555.5Z" fill="#0061AE"/>
<path d="M575.31 555.5C576.768 555.5 577.95 554.318 577.95 552.86C577.95 551.402 576.768 550.22 575.31 550.22C573.852 550.22 572.67 551.402 572.67 552.86C572.67 554.318 573.852 555.5 575.31 555.5Z" fill="#0061AE"/>
<path d="M551.38 555.5C551.905 555.502 552.419 555.348 552.856 555.058C553.293 554.767 553.634 554.354 553.836 553.869C554.038 553.384 554.091 552.851 553.989 552.336C553.887 551.821 553.635 551.348 553.264 550.976C552.892 550.605 552.419 550.353 551.904 550.251C551.389 550.149 550.856 550.202 550.371 550.404C549.886 550.606 549.473 550.947 549.182 551.384C548.892 551.821 548.738 552.335 548.74 552.86C548.742 553.56 549.021 554.229 549.516 554.724C550.011 555.219 550.68 555.498 551.38 555.5V555.5Z" fill="#0061AE"/>
<path d="M527.45 555.5C527.974 555.5 528.487 555.345 528.923 555.053C529.359 554.761 529.699 554.347 529.899 553.862C530.099 553.377 530.151 552.844 530.048 552.329C529.945 551.815 529.692 551.343 529.32 550.973C528.948 550.603 528.475 550.351 527.961 550.25C527.446 550.149 526.913 550.203 526.429 550.405C525.945 550.607 525.532 550.948 525.242 551.385C524.952 551.822 524.798 552.336 524.8 552.86C524.8 553.208 524.868 553.552 525.002 553.873C525.135 554.194 525.33 554.485 525.577 554.73C525.823 554.976 526.115 555.17 526.436 555.302C526.758 555.434 527.102 555.502 527.45 555.5V555.5Z" fill="#0061AE"/>
<path d="M503.51 555.5C504.968 555.5 506.15 554.318 506.15 552.86C506.15 551.402 504.968 550.22 503.51 550.22C502.052 550.22 500.87 551.402 500.87 552.86C500.87 554.318 502.052 555.5 503.51 555.5Z" fill="#0061AE"/>
<path d="M480.593 555.193C481.941 554.639 482.585 553.096 482.03 551.747C481.476 550.399 479.933 549.755 478.585 550.31C477.236 550.864 476.593 552.407 477.147 553.755C477.701 555.104 479.244 555.747 480.593 555.193Z" fill="#0061AE"/>
<path d="M455.65 555.5C456.175 555.5 456.687 555.345 457.123 555.053C457.559 554.761 457.899 554.347 458.099 553.862C458.3 553.377 458.351 552.844 458.248 552.329C458.145 551.815 457.892 551.343 457.52 550.973C457.149 550.603 456.676 550.351 456.161 550.25C455.646 550.149 455.113 550.203 454.629 550.405C454.145 550.607 453.732 550.948 453.442 551.385C453.152 551.822 452.998 552.336 453 552.86C453 553.208 453.069 553.552 453.202 553.873C453.335 554.194 453.531 554.485 453.777 554.73C454.023 554.976 454.315 555.17 454.637 555.302C454.958 555.434 455.303 555.502 455.65 555.5Z" fill="#0061AE"/>
<path d="M599.25 534.09C600.708 534.09 601.89 532.908 601.89 531.45C601.89 529.992 600.708 528.81 599.25 528.81C597.792 528.81 596.61 529.992 596.61 531.45C596.61 532.908 597.792 534.09 599.25 534.09Z" fill="#0061AE"/>
<path d="M575.31 534.09C576.768 534.09 577.95 532.908 577.95 531.45C577.95 529.992 576.768 528.81 575.31 528.81C573.852 528.81 572.67 529.992 572.67 531.45C572.67 532.908 573.852 534.09 575.31 534.09Z" fill="#0061AE"/>
<path d="M551.38 534.1C551.904 534.102 552.418 533.948 552.855 533.658C553.292 533.368 553.633 532.955 553.835 532.471C554.037 531.987 554.091 531.454 553.99 530.939C553.889 530.424 553.637 529.951 553.267 529.58C552.897 529.208 552.425 528.955 551.911 528.851C551.396 528.748 550.863 528.8 550.378 529.001C549.893 529.201 549.479 529.541 549.187 529.977C548.896 530.413 548.74 530.925 548.74 531.45C548.74 532.151 549.018 532.823 549.512 533.32C550.007 533.817 550.679 534.097 551.38 534.1V534.1Z" fill="#0061AE"/>
<path d="M527.45 534.1C527.974 534.1 528.486 533.944 528.922 533.653C529.358 533.362 529.697 532.948 529.898 532.464C530.099 531.98 530.151 531.447 530.049 530.933C529.947 530.419 529.694 529.947 529.324 529.576C528.953 529.205 528.481 528.953 527.967 528.851C527.453 528.748 526.92 528.801 526.436 529.002C525.951 529.202 525.538 529.542 525.246 529.978C524.955 530.413 524.8 530.926 524.8 531.45C524.8 531.798 524.868 532.142 525.001 532.464C525.135 532.785 525.33 533.078 525.576 533.324C525.822 533.57 526.114 533.765 526.436 533.898C526.757 534.031 527.102 534.1 527.45 534.1V534.1Z" fill="#0061AE"/>
<path d="M503.51 534.09C504.968 534.09 506.15 532.908 506.15 531.45C506.15 529.992 504.968 528.81 503.51 528.81C502.052 528.81 500.87 529.992 500.87 531.45C500.87 532.908 502.052 534.09 503.51 534.09Z" fill="#0061AE"/>
<path d="M480.591 533.792C481.94 533.237 482.583 531.694 482.029 530.346C481.474 528.997 479.932 528.354 478.583 528.908C477.235 529.463 476.591 531.005 477.145 532.354C477.7 533.702 479.243 534.346 480.591 533.792Z" fill="#0061AE"/>
<path d="M455.65 534.1C456.174 534.1 456.687 533.944 457.122 533.653C457.558 533.362 457.898 532.948 458.098 532.464C458.299 531.98 458.351 531.447 458.249 530.933C458.147 530.419 457.895 529.947 457.524 529.576C457.153 529.205 456.681 528.953 456.167 528.851C455.653 528.748 455.12 528.801 454.636 529.002C454.152 529.202 453.738 529.542 453.447 529.978C453.155 530.413 453 530.926 453 531.45C453 532.153 453.279 532.827 453.776 533.324C454.273 533.821 454.947 534.1 455.65 534.1V534.1Z" fill="#0061AE"/>
<path d="M599.25 512.69C600.708 512.69 601.89 511.508 601.89 510.05C601.89 508.592 600.708 507.41 599.25 507.41C597.792 507.41 596.61 508.592 596.61 510.05C596.61 511.508 597.792 512.69 599.25 512.69Z" fill="#0061AE"/>
<path d="M575.31 512.69C576.768 512.69 577.95 511.508 577.95 510.05C577.95 508.592 576.768 507.41 575.31 507.41C573.852 507.41 572.67 508.592 572.67 510.05C572.67 511.508 573.852 512.69 575.31 512.69Z" fill="#0061AE"/>
<path d="M551.38 512.66C551.905 512.662 552.419 512.508 552.856 512.218C553.293 511.927 553.634 511.514 553.836 511.029C554.038 510.544 554.091 510.011 553.989 509.496C553.887 508.981 553.635 508.508 553.264 508.137C552.892 507.765 552.419 507.513 551.904 507.411C551.389 507.309 550.856 507.362 550.371 507.564C549.886 507.766 549.473 508.107 549.182 508.544C548.892 508.982 548.738 509.495 548.74 510.02C548.742 510.72 549.021 511.39 549.516 511.884C550.011 512.379 550.68 512.658 551.38 512.66V512.66Z" fill="#0061AE"/>
<path d="M527.45 512.66C527.974 512.66 528.487 512.505 528.923 512.213C529.359 511.921 529.699 511.507 529.899 511.022C530.099 510.537 530.151 510.004 530.048 509.49C529.945 508.975 529.692 508.503 529.32 508.133C528.948 507.763 528.475 507.511 527.961 507.41C527.446 507.309 526.913 507.363 526.429 507.565C525.945 507.767 525.532 508.108 525.242 508.545C524.952 508.982 524.798 509.496 524.8 510.02C524.8 510.368 524.868 510.712 525.002 511.033C525.135 511.354 525.33 511.645 525.577 511.891C525.823 512.136 526.115 512.33 526.436 512.462C526.758 512.594 527.102 512.662 527.45 512.66V512.66Z" fill="#0061AE"/>
<path d="M503.51 512.69C504.968 512.69 506.15 511.508 506.15 510.05C506.15 508.592 504.968 507.41 503.51 507.41C502.052 507.41 500.87 508.592 500.87 510.05C500.87 511.508 502.052 512.69 503.51 512.69Z" fill="#0061AE"/>
<path d="M480.594 512.389C481.942 511.835 482.586 510.292 482.031 508.944C481.477 507.595 479.934 506.951 478.586 507.506C477.237 508.06 476.594 509.603 477.148 510.951C477.702 512.3 479.245 512.944 480.594 512.389Z" fill="#0061AE"/>
<path d="M455.65 512.66C456.175 512.66 456.687 512.505 457.123 512.213C457.559 511.921 457.899 511.507 458.099 511.022C458.3 510.537 458.351 510.004 458.248 509.49C458.145 508.975 457.892 508.503 457.52 508.133C457.149 507.763 456.676 507.511 456.161 507.41C455.646 507.309 455.113 507.363 454.629 507.565C454.145 507.767 453.732 508.108 453.442 508.545C453.152 508.982 452.998 509.496 453 510.02C453 510.368 453.069 510.712 453.202 511.033C453.335 511.354 453.531 511.645 453.777 511.891C454.023 512.136 454.315 512.33 454.637 512.462C454.958 512.594 455.303 512.662 455.65 512.66V512.66Z" fill="#0061AE"/>
<path d="M599.25 491.28C600.708 491.28 601.89 490.098 601.89 488.64C601.89 487.182 600.708 486 599.25 486C597.792 486 596.61 487.182 596.61 488.64C596.61 490.098 597.792 491.28 599.25 491.28Z" fill="#0061AE"/>
<path d="M575.31 491.28C576.768 491.28 577.95 490.098 577.95 488.64C577.95 487.182 576.768 486 575.31 486C573.852 486 572.67 487.182 572.67 488.64C572.67 490.098 573.852 491.28 575.31 491.28Z" fill="#0061AE"/>
<path d="M551.38 491.29C551.904 491.292 552.418 491.139 552.855 490.849C553.292 490.559 553.633 490.145 553.835 489.661C554.037 489.177 554.091 488.644 553.99 488.129C553.889 487.615 553.637 487.142 553.267 486.77C552.897 486.398 552.425 486.145 551.911 486.042C551.396 485.939 550.863 485.991 550.378 486.191C549.893 486.391 549.479 486.731 549.187 487.167C548.896 487.603 548.74 488.116 548.74 488.64C548.74 489.341 549.018 490.014 549.512 490.511C550.007 491.007 550.679 491.288 551.38 491.29V491.29Z" fill="#0061AE"/>
<path d="M527.45 491.29C527.974 491.29 528.486 491.135 528.922 490.844C529.358 490.552 529.697 490.139 529.898 489.654C530.099 489.17 530.151 488.637 530.049 488.123C529.947 487.609 529.694 487.137 529.324 486.766C528.953 486.396 528.481 486.143 527.967 486.041C527.453 485.939 526.92 485.991 526.436 486.192C525.951 486.393 525.538 486.732 525.246 487.168C524.955 487.604 524.8 488.116 524.8 488.64C524.8 488.988 524.868 489.333 525.001 489.654C525.135 489.976 525.33 490.268 525.576 490.514C525.822 490.76 526.114 490.955 526.436 491.089C526.757 491.222 527.102 491.29 527.45 491.29V491.29Z" fill="#0061AE"/>
<path d="M503.51 491.28C504.968 491.28 506.15 490.098 506.15 488.64C506.15 487.182 504.968 486 503.51 486C502.052 486 500.87 487.182 500.87 488.64C500.87 490.098 502.052 491.28 503.51 491.28Z" fill="#0061AE"/>
<path d="M480.592 490.977C481.941 490.423 482.584 488.88 482.03 487.531C481.475 486.183 479.933 485.539 478.584 486.094C477.236 486.648 476.592 488.191 477.146 489.539C477.701 490.888 479.244 491.532 480.592 490.977Z" fill="#0061AE"/>
<path d="M455.65 491.29C456.174 491.29 456.687 491.135 457.122 490.844C457.558 490.552 457.898 490.139 458.098 489.654C458.299 489.17 458.351 488.637 458.249 488.123C458.147 487.609 457.895 487.137 457.524 486.766C457.153 486.396 456.681 486.143 456.167 486.041C455.653 485.939 455.12 485.991 454.636 486.192C454.152 486.393 453.738 486.732 453.447 487.168C453.155 487.604 453 488.116 453 488.64C453 489.343 453.279 490.017 453.776 490.514C454.273 491.011 454.947 491.29 455.65 491.29V491.29Z" fill="#0061AE"/>
</g>
<g clip-path="url(#clip1_8057_1640)">
<path d="M398.814 86.6857C403.689 68.9134 364.375 53.6733 354.052 67.9854C352.616 65.9507 347.311 64.7147 344.877 65.3389C342.443 65.9631 340.396 67.5235 338.399 69.034C335.653 71.1438 332.807 73.3284 331.121 76.3618C329.424 79.3828 329.162 83.5024 331.446 86.1239C333.256 88.2087 338.598 89.5569 341.32 90.1062C343.217 90.4932 344.815 90.8052 346.188 91.0299C347.411 89.2448 348.035 87.0352 347.811 84.8756C349.658 86.0989 350.906 88.1962 351.106 90.4183C351.143 90.8801 335.765 147.468 335.765 147.468C337.35 148.404 339.31 149.278 341.569 150.077C345.401 144.297 348.547 137.481 350.619 130.353C351.094 134.76 351.019 139.541 350.444 144.397C350.145 146.981 349.695 149.578 349.121 152.174C367.396 156.119 394.882 154.821 406.841 138.043C406.843 137.973 406.845 137.904 406.847 137.834C406.932 134.695 411.215 133.915 412.361 136.839C412.652 137.579 412.919 138.22 413.157 138.729C416.639 126.271 412.133 111.852 398.814 86.6857V86.6857Z" fill="#2F2E41"/>
<path d="M150.412 227.619C154.736 232.748 162.399 233.4 167.527 229.076C168.024 228.657 168.486 228.199 168.91 227.706L226.621 245.986L235.602 231.265L166.898 210.055C161.508 206.078 153.915 207.224 149.938 212.614C146.61 217.125 146.806 223.328 150.412 227.619H150.412Z" fill="#FFB6B6"/>
<path d="M354.794 181.939C354.794 181.939 329.237 153.191 318.104 165.402C306.971 177.614 272.239 231.128 272.239 231.128L191.161 214.021L183.321 235.419L275.38 265.254C282.301 267.497 289.886 265.171 294.36 259.434L354.794 181.939V181.939Z" fill="#0061AE"/>
<path d="M299.285 444H426.047L426.162 443.01L426.237 442.351L427.325 433.114L428.867 419.959L429.461 414.903C429.502 414.648 429.544 414.4 429.576 414.144C430.096 410.854 430.393 407.547 430.5 404.248C430.657 399.712 430.451 395.184 429.964 390.714V390.689C429.7 388.272 429.362 385.881 428.941 383.514C428.414 380.47 427.779 377.476 427.045 374.549C426.204 371.151 425.247 367.843 424.2 364.652C422.996 360.916 421.676 357.336 420.315 353.955C420.167 353.592 420.018 353.229 419.878 352.874L419.87 352.866C412.695 335.373 404.547 323.423 404.547 323.423H312.199C312.199 323.423 307.928 342.169 305.808 357.65C305.47 360.099 305.19 362.458 304.984 364.652C304.612 368.701 304.505 372.182 304.827 374.549C305.025 376.017 305.388 377.056 305.948 377.534C311.028 381.872 305.214 391.076 305.214 391.076C305.214 391.076 300.86 397.732 304.654 401.476C305.404 402.219 305.833 403.175 306.039 404.248C306.369 406.021 306.08 408.083 305.627 409.905C305.173 411.736 304.546 413.328 304.2 414.144C304.043 414.507 303.944 414.714 303.944 414.714L303.301 419.802L302.674 424.701L301.611 433.114L301.289 434.598L299.631 442.351L299.491 443.01L299.285 444H299.285Z" fill="#2F2E41"/>
<path d="M363.315 142.608L402.073 146.06L409.217 168.292L417.002 169.419C430.305 171.345 438.222 185.298 433.053 197.707L426.203 214.152C426.203 214.152 436.265 245.21 423.908 258.26L418.649 315.735L430.511 353.624L291.855 358.1L315.473 310.574L316.173 281.065C316.173 281.065 301.081 227.727 315.073 210.762L320.533 162.507L348.976 158.24L363.315 142.608H363.315Z" fill="#0061AE"/>
<path d="M337.074 114.086C333.08 96.8583 343.807 79.6546 361.033 75.6604C378.26 71.6662 395.462 82.394 399.456 99.6216C403.45 116.849 392.723 134.053 375.496 138.047C358.27 142.041 341.068 131.313 337.074 114.086Z" fill="#FFB6B6"/>
<path d="M416.29 89.1828C421.165 71.4105 381.852 56.1704 371.528 70.4825C370.092 68.4477 364.787 67.2118 362.353 67.836C359.919 68.4601 357.872 70.0206 355.875 71.5311C353.129 73.6408 350.283 75.8254 348.598 78.8589C346.9 81.8799 346.638 85.9995 348.922 88.621C350.732 90.7057 356.075 92.054 358.796 92.6032C360.693 92.9902 362.291 93.3023 363.664 93.527C364.887 91.7419 365.511 89.5323 365.287 87.3727C367.134 88.596 368.382 90.6932 368.582 92.9153C368.62 93.3772 353.241 149.965 353.241 149.965C354.826 150.901 356.786 151.775 359.045 152.574C362.877 146.794 366.023 139.978 368.095 132.85C368.57 137.257 368.495 142.038 367.92 146.894C367.621 149.478 367.171 152.075 366.597 154.671C384.872 158.616 412.358 157.318 424.317 140.54C424.319 140.47 424.321 140.401 424.323 140.331C424.408 137.192 428.691 136.412 429.838 139.336C430.128 140.076 430.395 140.717 430.633 141.226C434.116 128.768 429.609 114.349 416.29 89.1828L416.29 89.1828Z" fill="#2F2E41"/>
<path d="M142.586 443.01H573.07L639.87 443.835L171.399 415.864C155.772 414.931 142.586 427.354 142.586 443.01V443.01V443.01Z" fill="#3F3D56"/>
<path d="M37.1594 442.351V444H640.002V0H638.353V442.351H37.1594Z" fill="#3F3D56"/>
<path d="M101.665 102.696H211.391C213.921 102.696 215.98 100.645 215.98 98.1235C215.98 95.6023 213.921 93.5518 211.391 93.5518H101.665C99.1349 93.5518 97.077 95.6023 97.077 98.1235C97.077 100.645 99.1349 102.696 101.665 102.696Z" fill="#0061AE"/>
<path d="M156.569 117.443C156.979 116.432 158.395 116.432 158.805 117.443C161.666 124.497 165.739 132.395 170.169 138.432C170.878 139.398 169.901 140.689 168.773 140.282L159.277 136.846V195.637H156.098V136.846L146.598 140.282C145.471 140.69 144.493 139.398 145.202 138.432C149.633 132.395 153.706 124.497 156.569 117.443V117.443Z" fill="#3F3D56"/>
<path d="M2.83175 136.303H70.4805C72.0405 136.303 73.3098 135.038 73.3098 133.484C73.3098 131.929 72.0405 130.665 70.4805 130.665H2.83175C1.27176 130.665 0.00305137 131.929 0.00305137 133.484C0.00305137 135.038 1.27177 136.303 2.83175 136.303Z" fill="#F2F2F2"/>
<path d="M36.6793 145.395C36.9322 144.772 37.8054 144.772 38.0582 145.395C39.822 149.744 42.333 154.613 45.0644 158.335C45.5017 158.931 44.8988 159.727 44.2039 159.476L38.349 157.357V193.604H36.389V157.357L30.532 159.476C29.837 159.727 29.2342 158.931 29.6715 158.335C32.403 154.614 34.9143 149.744 36.6793 145.395V145.395Z" fill="#F2F2F2"/>
<path d="M36.6433 228.578C28.5249 228.578 21.9436 221.996 21.9436 213.877C21.9436 205.758 28.5249 199.176 36.6433 199.176C44.7617 199.176 51.343 205.758 51.343 213.877C51.343 221.996 44.7617 228.578 36.6433 228.578Z" fill="#F2F2F2"/>
<path d="M219.723 53.004H287.372C288.932 53.004 290.201 51.7392 290.201 50.1848C290.201 48.6304 288.932 47.3662 287.372 47.3662H219.723C218.163 47.3662 216.894 48.6304 216.894 50.1848C216.894 51.7392 218.163 53.004 219.723 53.004V53.004Z" fill="#F2F2F2"/>
<path d="M253.571 62.0958C253.824 61.4726 254.697 61.4726 254.95 62.0959C256.713 66.4444 259.224 71.3141 261.956 75.0357C262.393 75.6315 261.79 76.4277 261.095 76.1763L255.24 74.058V110.304H253.28V74.0579L247.423 76.1765C246.728 76.4279 246.126 75.6318 246.563 75.0359C249.294 71.3143 251.806 66.4444 253.571 62.0958H253.571Z" fill="#F2F2F2"/>
<path d="M253.535 145.279C245.416 145.279 238.835 138.697 238.835 130.578C238.835 122.459 245.416 115.877 253.535 115.877C261.653 115.877 268.234 122.459 268.234 130.578C268.234 138.697 261.653 145.279 253.535 145.279Z" fill="#F2F2F2"/>
<path d="M423.96 415.43C420.491 409.688 422.334 402.221 428.075 398.752C428.631 398.416 429.213 398.125 429.816 397.882L431.034 337.353L447.857 333.574L445.886 405.454C447.922 411.836 444.399 418.661 438.017 420.697C432.677 422.4 426.866 420.223 423.96 415.43V415.43Z" fill="#FFB6B6"/>
<path d="M412.257 176.619C412.257 176.619 432.875 171.67 439.472 185.691C446.069 199.712 446.631 260.723 446.631 260.723L450.193 384.454L424.041 383.301L403.186 231.052L412.257 176.619V176.619Z" fill="#0061AE"/>
<path d="M421.512 433.687C421.047 434.269 420.343 434.606 419.598 434.602H285.719C284.359 434.601 283.257 433.497 283.259 432.136C283.259 431.967 283.277 431.799 283.311 431.633L285.39 421.761C285.565 420.943 286.142 420.27 286.923 419.972C287.202 419.862 287.498 419.806 287.798 419.807H417.528C417.827 419.806 418.124 419.862 418.402 419.972C419.184 420.27 419.761 420.943 419.936 421.761L422.015 431.633C422.164 432.359 421.98 433.113 421.512 433.687V433.687Z" fill="#CCCCCC"/>
<path d="M472.764 212.689V367.13C472.761 371.228 469.44 374.549 465.342 374.553H236.493C232.395 374.55 229.074 371.228 229.071 367.13V212.689C229.08 208.595 232.399 205.28 236.493 205.274H465.342C469.436 205.28 472.754 208.595 472.764 212.689V212.689Z" fill="#E6E6E6"/>
<path d="M322.3 341.526C322.572 341.435 322.861 341.394 323.149 341.394H376.688C378.263 341.394 379.549 342.672 379.549 344.248V428.833H320.296V344.248C320.296 343.002 321.104 341.897 322.3 341.526V341.526ZM343.775 383.126C343.791 386.623 346.636 389.444 350.133 389.427C353.605 389.402 356.409 386.598 356.425 383.126V373.312C356.392 369.823 353.531 367.019 350.042 367.052C346.595 367.085 343.808 369.872 343.775 373.312V383.126V383.126Z" fill="#CCCCCC"/>
</g>
<defs>
<clipPath id="clip0_8057_1640">
<rect width="148.89" height="90.91" fill="white" transform="translate(453 486)"/>
</clipPath>
<clipPath id="clip1_8057_1640">
<rect width="640" height="444" fill="white" transform="matrix(-1 0 0 1 640 0)"/>
</clipPath>
</defs>
</svg>
